  0
SECTION
  2
HEADER
  9
$ACADVER
  1
AC1015
  9
$ACADMAINTVER
 70
     6
  9
$DWGCODEPAGE
  3
ANSI_1252
  9
$INSBASE
 10
0.0
 20
0.0
 30
0.0
  9
$EXTMIN
 10
0.0
 20
0.0
 30
0.0
  9
$EXTMAX
 10
300.0
 20
300.0
 30
0.0
  9
$LIMMIN
 10
0.0
 20
0.0
  9
$LIMMAX
 10
300.0
 20
300.0
  9
$ORTHOMODE
 70
     0
  9
$REGENMODE
 70
     1
  9
$FILLMODE
 70
     1
  9
$QTEXTMODE
 70
     0
  9
$MIRRTEXT
 70
     1
  9
$LTSCALE
 40
1.0
  9
$ATTMODE
 70
     1
  9
$TEXTSIZE
 40
3.175
  9
$TRACEWID
 40
1.0
  9
$TEXTSTYLE
  7
Standard
  9
$CLAYER
  8
0
  9
$CELTYPE
  6
ByLayer
  9
$CECOLOR
 62
   256
  9
$CELTSCALE
 40
1.0
  9
$DISPSILH
 70
     0
  9
$DIMSCALE
 40
1.0
  9
$DIMASZ
 40
3.302
  9
$DIMEXO
 40
1.27
  9
$DIMDLI
 40
3.75
  9
$DIMRND
 40
0.0
  9
$DIMDLE
 40
0.0
  9
$DIMEXE
 40
3.175
  9
$DIMTP
 40
0.0
  9
$DIMTM
 40
0.0
  9
$DIMTXT
 40
3.175
  9
$DIMCEN
 40
2.5
  9
$DIMTSZ
 40
0.0
  9
$DIMTOL
 70
     0
  9
$DIMLIM
 70
     0
  9
$DIMTIH
 70
     1
  9
$DIMTOH
 70
     1
  9
$DIMSE1
 70
     0
  9
$DIMSE2
 70
     0
  9
$DIMTAD
 70
     0
  9
$DIMZIN
 70
     1
  9
$DIMBLK
  1

  9
$DIMASO
 70
     1
  9
$DIMSHO
 70
     1
  9
$DIMPOST
  1

  9
$DIMAPOST
  1

  9
$DIMALT
 70
     0
  9
$DIMALTD
 70
     3
  9
$DIMALTF
 40
0.0393700787
  9
$DIMLFAC
 40
1.0
  9
$DIMTOFL
 70
     1
  9
$DIMTVP
 40
0.0
  9
$DIMTIX
 70
     0
  9
$DIMSOXD
 70
     0
  9
$DIMSAH
 70
     0
  9
$DIMBLK1
  1

  9
$DIMBLK2
  1

  9
$DIMSTYLE
  2
ISO-25
  9
$DIMCLRD
 70
     0
  9
$DIMCLRE
 70
     0
  9
$DIMCLRT
 70
     0
  9
$DIMTFAC
 40
1.0
  9
$DIMGAP
 40
1.524
  9
$DIMJUST
 70
     0
  9
$DIMSD1
 70
     0
  9
$DIMSD2
 70
     0
  9
$DIMTOLJ
 70
     0
  9
$DIMTZIN
 70
     1
  9
$DIMALTZ
 70
     0
  9
$DIMALTTZ
 70
     0
  9
$DIMUPT
 70
     0
  9
$DIMDEC
 70
     2
  9
$DIMTDEC
 70
     2
  9
$DIMALTU
 70
     2
  9
$DIMALTTD
 70
     3
  9
$DIMTXSTY
  7
Standard
  9
$DIMAUNIT
 70
     0
  9
$DIMADEC
 70
     2
  9
$DIMALTRND
 40
0.0
  9
$DIMAZIN
 70
     0
  9
$DIMDSEP
 70
    44
  9
$DIMATFIT
 70
     3
  9
$DIMFRAC
 70
     0
  9
$DIMLDRBLK
  1

  9
$DIMLUNIT
 70
     2
  9
$DIMLWD
 70
    -2
  9
$DIMLWE
 70
    -2
  9
$DIMTMOVE
 70
     0
  9
$LUNITS
 70
     2
  9
$LUPREC
 70
     2
  9
$SKETCHINC
 40
1.0
  9
$FILLETRAD
 40
10.0
  9
$AUNITS
 70
     0
  9
$AUPREC
 70
     2
  9
$MENU
  1
.
  9
$ELEVATION
 40
0.0
  9
$PELEVATION
 40
0.0
  9
$THICKNESS
 40
0.0
  9
$LIMCHECK
 70
     0
  9
$CHAMFERA
 40
0.0
  9
$CHAMFERB
 40
0.0
  9
$CHAMFERC
 40
0.0
  9
$CHAMFERD
 40
0.0
  9
$SKPOLY
 70
     0
  9
$TDCREATE
 40
2460406.998225613
  9
$TDUCREATE
 40
2460407.248225613
  9
$TDUPDATE
 40
2460406.998226262
  9
$TDUUPDATE
 40
2460407.248226262
  9
$TDINDWG
 40
0.0000000116
  9
$TDUSRTIMER
 40
0.0000000116
  9
$USRTIMER
 70
     1
  9
$ANGBASE
 50
0.0
  9
$ANGDIR
 70
     0
  9
$PDMODE
 70
     0
  9
$PDSIZE
 40
-1.0
  9
$PLINEWID
 40
0.0
  9
$SPLFRAME
 70
     0
  9
$SPLINETYPE
 70
     6
  9
$SPLINESEGS
 70
     8
  9
$HANDSEED
  5
CB
  9
$SURFTAB1
 70
     6
  9
$SURFTAB2
 70
     6
  9
$SURFTYPE
 70
     6
  9
$SURFU
 70
     6
  9
$SURFV
 70
     6
  9
$UCSBASE
  2

  9
$UCSNAME
  2

  9
$UCSORG
 10
0.0
 20
0.0
 30
0.0
  9
$UCSXDIR
 10
1.0
 20
0.0
 30
0.0
  9
$UCSYDIR
 10
0.0
 20
1.0
 30
0.0
  9
$UCSORTHOREF
  2

  9
$UCSORTHOVIEW
 70
     0
  9
$UCSORGTOP
 10
0.0
 20
0.0
 30
0.0
  9
$UCSORGBOTTOM
 10
0.0
 20
0.0
 30
0.0
  9
$UCSORGLEFT
 10
0.0
 20
0.0
 30
0.0
  9
$UCSORGRIGHT
 10
0.0
 20
0.0
 30
0.0
  9
$UCSORGFRONT
 10
0.0
 20
0.0
 30
0.0
  9
$UCSORGBACK
 10
0.0
 20
0.0
 30
0.0
  9
$PUCSBASE
  2

  9
$PUCSNAME
  2

  9
$PUCSORG
 10
0.0
 20
0.0
 30
0.0
  9
$PUCSXDIR
 10
1.0
 20
0.0
 30
0.0
  9
$PUCSYDIR
 10
0.0
 20
1.0
 30
0.0
  9
$PUCSORTHOREF
  2

  9
$PUCSORTHOVIEW
 70
     0
  9
$PUCSORGTOP
 10
0.0
 20
0.0
 30
0.0
  9
$PUCSORGBOTTOM
 10
0.0
 20
0.0
 30
0.0
  9
$PUCSORGLEFT
 10
0.0
 20
0.0
 30
0.0
  9
$PUCSORGRIGHT
 10
0.0
 20
0.0
 30
0.0
  9
$PUCSORGFRONT
 10
0.0
 20
0.0
 30
0.0
  9
$PUCSORGBACK
 10
0.0
 20
0.0
 30
0.0
  9
$USERI1
 70
     0
  9
$USERI2
 70
     0
  9
$USERI3
 70
     0
  9
$USERI4
 70
     0
  9
$USERI5
 70
     0
  9
$USERR1
 40
0.0
  9
$USERR2
 40
0.0
  9
$USERR3
 40
0.0
  9
$USERR4
 40
0.0
  9
$USERR5
 40
0.0
  9
$WORLDVIEW
 70
     1
  9
$SHADEDGE
 70
     3
  9
$SHADEDIF
 70
    70
  9
$TILEMODE
 70
     1
  9
$MAXACTVP
 70
    64
  9
$PINSBASE
 10
0.0
 20
0.0
 30
0.0
  9
$PLIMCHECK
 70
     0
  9
$PEXTMIN
 10
1.0000000000E+20
 20
1.0000000000E+20
 30
1.0000000000E+20
  9
$PEXTMAX
 10
-1.0000000000E+20
 20
-1.0000000000E+20
 30
-1.0000000000E+20
  9
$PLIMMIN
 10
0.0
 20
0.0
  9
$PLIMMAX
 10
420.0
 20
297.0
  9
$UNITMODE
 70
     0
  9
$VISRETAIN
 70
     1
  9
$PLINEGEN
 70
     0
  9
$PSLTSCALE
 70
     1
  9
$TREEDEPTH
 70
  3020
  9
$CMLSTYLE
  2
Standard
  9
$CMLJUST
 70
     0
  9
$CMLSCALE
 40
20.0
  9
$PROXYGRAPHICS
 70
     1
  9
$MEASUREMENT
 70
     1
  9
$CELWEIGHT
370
    -1
  9
$ENDCAPS
280
     0
  9
$JOINSTYLE
280
     0
  9
$LWDISPLAY
290
     1
  9
$INSUNITS
 70
     4
  9
$HYPERLINKBASE
  1

  9
$STYLESHEET
  1

  9
$XEDIT
290
     1
  9
$CEPSNTYPE
380
     0
  9
$PSTYLEMODE
290
     1
  9
$FINGERPRINTGUID
  2
{890a20cb-4a7f-49e1-8fcc-82a5ae2e8e5d}
  9
$VERSIONGUID
  2
{FAEB1C32-E019-11D5-929B-00C0DF256EC4}
  9
$EXTNAMES
290
     1
  9
$PSVPSCALE
 40
0.0
  9
$OLESTARTUP
290
     0
  0
ENDSEC
  0
SECTION
  2
CLASSES
  0
CLASS
  1
ACDBDICTIONARYWDFLT
  2
AcDbDictionaryWithDefault
  3
ObjectDBX Classes
 90
        0
280
     0
281
     0
  0
CLASS
  1
VISUALSTYLE
  2
AcDbVisualStyle
  3
ObjectDBX Classes
 90
     4095
280
     0
281
     0
  0
CLASS
  1
MATERIAL
  2
AcDbMaterial
  3
ObjectDBX Classes
 90
     1153
280
     0
281
     0
  0
CLASS
  1
SCALE
  2
AcDbScale
  3
ObjectDBX Classes
 90
     1153
280
     0
281
     0
  0
CLASS
  1
TABLESTYLE
  2
AcDbTableStyle
  3
ObjectDBX Classes
 90
     4095
280
     0
281
     0
  0
CLASS
  1
MLEADERSTYLE
  2
AcDbMLeaderStyle
  3
ACDB_MLEADERSTYLE_CLASS
 90
     4095
280
     0
281
     0
  0
CLASS
  1
SUN
  2
AcDbSun
  3
SCENEOE
 90
     1153
280
     0
281
     0
  0
CLASS
  1
ACDBPLACEHOLDER
  2
AcDbPlaceHolder
  3
ObjectDBX Classes
 90
        0
280
     0
281
     0
  0
CLASS
  1
LAYOUT
  2
AcDbLayout
  3
ObjectDBX Classes
 90
        0
280
     0
281
     0
  0
ENDSEC
  0
SECTION
  2
TABLES
  0
TABLE
  2
VPORT
  5
8
330
0
100
AcDbSymbolTable
 70
     1
  0
VPORT
  5
29
330
8
100
AcDbSymbolTableRecord
100
AcDbViewportTableRecord
  2
*Active
 70
     0
 10
0.0
 20
0.0
 11
1.0
 21
1.0
 12
150.0
 22
150.0
 13
0.0
 23
0.0
 14
10.0
 24
10.0
 15
10.0
 25
10.0
 16
0.0
 26
0.0
 36
1.0
 17
0.0
 27
0.0
 37
0.0
 40
300.0
 41
1.0
 42
50.0
 43
0.0
 44
0.0
 50
0.0
 51
0.0
 71
     0
 72
  2000
 73
     1
 74
     3
 75
     0
 76
     0
 77
     0
 78
     0
281
     0
 65
     1
110
0.0
120
0.0
130
0.0
111
1.0
121
0.0
131
0.0
112
0.0
122
1.0
132
0.0
 79
     0
146
0.0
  0
ENDTAB
  0
TABLE
  2
LTYPE
  5
5
330
0
100
AcDbSymbolTable
 70
     6
  0
LTYPE
  5
14
330
5
100
AcDbSymbolTableRecord
100
AcDbLinetypeTableRecord
  2
ByBlock
 70
     0
  3

 72
    65
 73
     0
 40
0.0
  0
LTYPE
  5
15
330
5
100
AcDbSymbolTableRecord
100
AcDbLinetypeTableRecord
  2
ByLayer
 70
     0
  3

 72
    65
 73
     0
 40
0.0
  0
LTYPE
  5
16
330
5
100
AcDbSymbolTableRecord
100
AcDbLinetypeTableRecord
  2
Continuous
 70
     0
  3
Solid line
 72
    65
 73
     0
 40
0.0
  0
LTYPE
  5
6E
330
5
100
AcDbSymbolTableRecord
100
AcDbLinetypeTableRecord
  2
HIDDEN
 70
     0
  3
Hidden __ __ __ __ __ __ __ __ __ __ __ __ __ __
 72
    65
 73
     2
 40
1.905
 49
1.27
 74
     0
 49
-0.635
 74
     0
  0
LTYPE
  5
6F
330
5
100
AcDbSymbolTableRecord
100
AcDbLinetypeTableRecord
  2
PHANTOM
 70
     0
  3
Phantom ______  __  __  ______  __  __  ______
 72
    65
 73
     6
 40
12.7
 49
6.35
 74
     0
 49
-1.27
 74
     0
 49
1.27
 74
     0
 49
-1.27
 74
     0
 49
1.27
 74
     0
 49
-1.27
 74
     0
  0
LTYPE
  5
70
330
5
100
AcDbSymbolTableRecord
100
AcDbLinetypeTableRecord
  2
CENTER
 70
     0
  3
Center ____ _ ____ _ ____ _ ____ _ ____ _ ____
 72
    65
 73
     4
 40
10.16
 49
6.35
 74
     0
 49
-1.27
 74
     0
 49
1.27
 74
     0
 49
-1.27
 74
     0
  0
LTYPE
  5
71
330
5
100
AcDbSymbolTableRecord
100
AcDbLinetypeTableRecord
  2
CENTERX2
 70
     0
  3
Center (2x) ________  __  ________  __  _____
 72
    65
 73
     4
 40
20.32
 49
12.7
 74
     0
 49
-2.54
 74
     0
 49
2.54
 74
     0
 49
-2.54
 74
     0
  0
LTYPE
  5
72
330
5
100
AcDbSymbolTableRecord
100
AcDbLinetypeTableRecord
  2
DOT2
 70
     0
  3
Dot (.5x) ........................................
 72
    65
 73
     2
 40
0.635
 49
0.0
 74
     0
 49
-0.635
 74
     0
  0
ENDTAB
  0
TABLE
  2
LAYER
  5
2
330
0
100
AcDbSymbolTable
 70
     1
  0
LAYER
  5
10
330
2
100
AcDbSymbolTableRecord
100
AcDbLayerTableRecord
  2
0
 70
     0
 62
     7
  6
Continuous
370
    -3
390
F
  0
ENDTAB
  0
TABLE
  2
STYLE
  5
3
330
0
100
AcDbSymbolTable
 70
     1
  0
STYLE
  5
11
330
3
100
AcDbSymbolTableRecord
100
AcDbTextStyleTableRecord
  2
Standard
 70
     0
 40
0.0
 41
1.0
 50
0.0
 71
     0
 42
3.175
  3
txt
  4

  0
ENDTAB
  0
TABLE
  2
VIEW
  5
6
330
0
100
AcDbSymbolTable
 70
     0
  0
ENDTAB
  0
TABLE
  2
UCS
  5
7
330
0
100
AcDbSymbolTable
 70
     0
  0
ENDTAB
  0
TABLE
  2
APPID
  5
9
330
0
100
AcDbSymbolTable
 70
     1
  0
APPID
  5
12
330
9
100
AcDbSymbolTableRecord
100
AcDbRegAppTableRecord
  2
ACAD
 70
     0
  0
ENDTAB
  0
TABLE
  2
DIMSTYLE
  5
A
330
0
100
AcDbSymbolTable
 70
     1
100
AcDbDimStyleTable
  0
DIMSTYLE
105
27
330
A
100
AcDbSymbolTableRecord
100
AcDbDimStyleTableRecord
  2
ISO-25
 70
     0
 41
2.5
 42
0.625
 43
3.75
 44
1.25
 73
     0
 74
     0
 77
     1
 78
     8
140
2.5
141
2.5
143
0.0393700787
147
0.625
171
     3
172
     1
178
     0
271
     2
272
     2
274
     3
278
    44
283
     0
284
     8
340
11
  0
ENDTAB
  0
TABLE
  2
BLOCK_RECORD
  5
1
330
0
100
AcDbSymbolTable
 70
     1
  0
BLOCK_RECORD
  5
1F
330
1
100
AcDbSymbolTableRecord
100
AcDbBlockTableRecord
  2
*Model_Space
340
22
  0
BLOCK_RECORD
  5
1B
330
1
100
AcDbSymbolTableRecord
100
AcDbBlockTableRecord
  2
*Paper_Space
340
1E
  0
BLOCK_RECORD
  5
23
330
1
100
AcDbSymbolTableRecord
100
AcDbBlockTableRecord
  2
*Paper_Space0
340
26
  0
ENDTAB
  0
ENDSEC
  0
SECTION
  2
BLOCKS
  0
BLOCK
  5
20
330
1F
100
AcDbEntity
  8
0
100
AcDbBlockBegin
  2
*Model_Space
 70
     0
 10
0.0
 20
0.0
 30
0.0
  3
*Model_Space
  1

  0
ENDBLK
  5
21
330
1F
100
AcDbEntity
  8
0
100
AcDbBlockEnd
  0
BLOCK
  5
1C
330
1B
100
AcDbEntity
 67
     1
  8
0
100
AcDbBlockBegin
  2
*Paper_Space
 70
     0
 10
0.0
 20
0.0
 30
0.0
  3
*Paper_Space
  1

  0
ENDBLK
  5
1D
330
1B
100
AcDbEntity
 67
     1
  8
0
100
AcDbBlockEnd
  0
BLOCK
  5
24
330
23
100
AcDbEntity
  8
0
100
AcDbBlockBegin
  2
*Paper_Space0
 70
     0
 10
0.0
 20
0.0
 30
0.0
  3
*Paper_Space0
  1

  0
ENDBLK
  5
25
330
23
100
AcDbEntity
  8
0
100
AcDbBlockEnd
  0
ENDSEC
  0
SECTION
  2
ENTITIES
  0
CIRCLE
  5
73
330
1F
100
AcDbEntity
  8
0
  6
Continuous
 62
     7
370
    25
100
AcDbCircle
 10
48.5040526532
 20
254.6560361274
 30
0.0
 40
4.999999999999993
  0
ARC
  5
74
330
1F
100
AcDbEntity
  8
0
  6
Continuous
 62
     7
370
    25
100
AcDbCircle
 10
71.6702322045
 20
268.0310361274
 30
0.0
 40
6.75000000000002
100
AcDbArc
 50
120.0
 51
300.0
  0
LINE
  5
75
330
1F
100
AcDbEntity
  8
0
  6
Continuous
 62
     7
370
    25
100
AcDbLine
 10
83.9579765259
 20
267.3311399851
 30
0.0
 11
75.0452322045
 21
262.1853646519
 31
0.0
  0
SPLINE
  5
76
330
1F
100
AcDbEntity
  8
0
  6
Continuous
 62
     7
370
    25
100
AcDbSpline
210
0.0
220
0.0
230
1.0
 70
     8
 71
     3
 72
    25
 73
    21
 74
     0
 42
0.00000001
 43
0.00000001
 40
0.0
 40
0.0
 40
0.0
 40
0.0
 40
0.028493366702545
 40
0.0564732510238127
 40
0.084081250927409
 40
0.1114647339451397
 40
0.1387747024025988
 40
0.1661633745787415
 40
0.1937816674560509
 40
0.2217767847231954
 40
0.2502900944505017
 40
0.3751284535078762
 40
0.5000701820815793
 40
0.6246983309387631
 40
0.7494293309123851
 40
0.8004041833144575
 40
0.8500739668911785
 40
0.8993066022593369
 40
0.9489929236327309
 40
1.0
 40
1.0
 40
1.0
 40
1.0
 10
86.64108146643959
 20
264.7002296483985
 30
0.0
 10
86.66348317929818
 20
264.7427619808524
 30
0.0
 10
86.70788290105916
 20
264.8270601654923
 30
0.0
 10
86.76276493323395
 20
264.9579969691343
 30
0.0
 10
86.80803735851576
 20
265.0905023487755
 30
0.0
 10
86.84295198022859
 20
265.2249767647291
 30
0.0
 10
86.86769843150044
 20
265.3613003154283
 30
0.0
 10
86.88221992337652
 20
265.4994921257709
 30
0.0
 10
86.88654266066347
 20
265.6395198139934
 30
0.0
 10
86.88062683658003
 20
265.7814201563673
 30
0.0
 10
86.8467836246882
 20
266.0853539813357
 30
0.0
 10
86.70781796327414
 20
266.5441308580363
 30
0.0
 10
86.32132956165684
 20
267.0570770839897
 30
0.0
 10
85.80106652828712
 20
267.433523771966
 30
0.0
 10
85.30359748367839
 20
267.5739352252024
 30
0.0
 10
84.92384460379232
 20
267.5990812100792
 30
0.0
 10
84.67070648739056
 20
267.5831770732105
 30
0.0
 10
84.42453964533028
 20
267.5331752490658
 30
0.0
 10
84.18409753207989
 20
267.4515399017637
 30
0.0
 10
84.03400642299026
 20
267.3716227046203
 30
0.0
 10
83.95797652594474
 20
267.3311399851052
 30
0.0
  0
ARC
  5
77
330
1F
100
AcDbEntity
  8
0
  6
Continuous
 62
     7
370
    25
100
AcDbCircle
 10
104.8552138477
 20
254.6560581247
 30
0.0
 40
20.80000000000003
100
AcDbArc
 50
151.1254895546
 51
208.8745364661
  0
SPLINE
  5
78
330
1F
100
AcDbEntity
  8
0
  6
Continuous
 62
     7
370
    25
100
AcDbSpline
210
0.0
220
0.0
230
1.0
 70
     8
 71
     3
 72
    25
 73
    21
 74
     0
 42
0.00000001
 43
0.00000001
 40
0.0
 40
0.0
 40
0.0
 40
0.0
 40
0.0284933574771714
 40
0.0564732325358864
 40
0.0840812231405028
 40
0.1114646968261402
 40
0.138774655923575
 40
0.1661633187178671
 40
0.1937816021974627
 40
0.2217767100558586
 40
0.2502900103662651
 40
0.3748768965515486
 40
0.4995674874002385
 40
0.6244318474352468
 40
0.7493994158574733
 40
0.8003805759836996
 40
0.850056184793742
 40
0.8992944787252105
 40
0.9489866222060103
 40
1.0
 40
1.0
 40
1.0
 40
1.0
 10
83.95795723405205
 20
241.9809434079132
 30
0.0
 10
84.00004172995754
 20
241.9577103723821
 30
0.0
 10
84.08345231171617
 20
241.9116629868075
 30
0.0
 10
84.2132870476889
 20
241.8542191233142
 30
0.0
 10
84.3448788272482
 20
241.8063522925476
 30
0.0
 10
84.47864273273044
 20
241.7688026886308
 30
0.0
 10
84.61445516289542
 20
241.7413830654667
 30
0.0
 10
84.75233634272048
 20
241.7241498369226
 30
0.0
 10
84.89225342640616
 20
241.7170773976155
 30
0.0
 10
85.03424379535353
 20
241.7202049820717
 30
0.0
 10
85.33836517352296
 20
241.7480325778334
 30
0.0
 10
85.7989483623614
 20
241.8775983726883
 30
0.0
 10
86.31936898729717
 20
242.2530908910639
 30
0.0
 10
86.70677570826317
 20
242.7658007333153
 30
0.0
 10
86.85734179863893
 20
243.2611998776439
 30
0.0
 10
86.89000667234676
 20
243.640803776961
 30
0.0
 10
86.87909037281425
 20
243.8942390656946
 30
0.0
 10
86.83393725907065
 20
244.1413735236369
 30
0.0
 10
86.75703575272989
 20
244.3834056909818
 30
0.0
 10
86.68007251647246
 20
244.5350575699754
 30
0.0
 10
86.64108602796865
 20
244.6118783291388
 30
0.0
  0
LINE
  5
79
330
1F
100
AcDbEntity
  8
0
  6
Continuous
 62
     7
370
    25
100
AcDbLine
 10
75.0452322045
 20
247.126707603
 30
0.0
 11
83.9579572341
 21
241.9809434079
 31
0.0
  0
ARC
  5
7A
330
1F
100
AcDbEntity
  8
0
  6
Continuous
 62
     7
370
    25
100
AcDbCircle
 10
71.6702322045
 20
241.2810361274
 30
0.0
 40
6.750000000000012
100
AcDbArc
 50
60.0
 51
240.0
  0
LINE
  5
7B
330
1F
100
AcDbEntity
  8
0
  6
Continuous
 62
     7
370
    25
100
AcDbLine
 10
77.2079765259
 20
230.2895893186
 30
0.0
 11
68.2952322045
 21
235.4353646519
 31
0.0
  0
SPLINE
  5
7C
330
1F
100
AcDbEntity
  8
0
  6
Continuous
 62
     7
370
    25
100
AcDbSpline
210
0.0
220
0.0
230
1.0
 70
     8
 71
     3
 72
    25
 73
    21
 74
     0
 42
0.00000001
 43
0.00000001
 40
0.0
 40
0.0
 40
0.0
 40
0.0
 40
0.0284933667028916
 40
0.0564732510244178
 40
0.0840812509281862
 40
0.1114647339459991
 40
0.1387747024034582
 40
0.1661633745795197
 40
0.1937816674566737
 40
0.2217767847235942
 40
0.2502900944506159
 40
0.3751284535088671
 40
0.500070182081608
 40
0.6246983309392969
 40
0.7494293309124412
 40
0.8004041833147348
 40
0.8500739668915764
 40
0.899306602259734
 40
0.9489929236329963
 40
0.9999999999999999
 40
0.9999999999999999
 40
0.9999999999999999
 40
0.9999999999999999
 10
76.27109380952507
 20
226.6504971108024
 30
0.0
 10
76.3191287463423
 20
226.6523628246056
 30
0.0
 10
76.41433297661482
 20
226.6560606299596
 30
0.0
 10
76.55516859094791
 20
226.6739997977059
 30
0.0
 10
76.6925578284971
 20
226.7010454171416
 30
0.0
 10
76.82647339972887
 20
226.7380456757515
 30
0.0
 10
76.95690628340427
 20
226.7847763956461
 30
0.0
 10
77.08384464769361
 20
226.8412963199519
 30
0.0
 10
77.20727355157008
 20
226.9075665637587
 30
0.0
 10
77.32720494082864
 20
226.9836399888862
 30
0.0
 10
77.57349774837374
 20
227.1649159826167
 30
0.0
 10
77.90132734755709
 20
227.5146522140053
 30
0.0
 10
78.1523076092006
 20
228.1058341010506
 30
0.0
 10
78.21818848747353
 20
228.7446184485856
 30
0.0
 10
78.09105385065367
 20
229.2456450054317
 30
0.0
 10
77.92295447241598
 20
229.5870936390109
 30
0.0
 10
77.78261202766105
 20
229.798365610047
 30
0.0
 10
77.61622575668609
 20
229.9865514367683
 30
0.0
 10
77.42530641545115
 20
230.1539627413314
 30
0.0
 10
77.28105053798141
 20
230.2439868561131
 30
0.0
 10
77.20797652594473
 20
230.2895893186439
 30
0.0
  0
ARC
  5
7D
330
1F
100
AcDbEntity
  8
0
  6
Continuous
 62
     7
370
    25
100
AcDbCircle
 10
76.6796523007
 20
205.8545099989
 30
0.0
 40
20.80000000000001
100
AcDbArc
 50
91.1254895546
 51
148.8745364661
  0
SPLINE
  5
7E
330
1F
100
AcDbEntity
  8
0
  6
Continuous
 62
     7
370
    25
100
AcDbSpline
210
0.0
220
0.0
230
1.0
 70
     8
 71
     3
 72
    25
 73
    21
 74
     0
 42
0.00000001
 43
0.00000001
 40
0.0
 40
0.0
 40
0.0
 40
0.0
 40
0.0284933574772726
 40
0.0564732325360713
 40
0.0840812231407553
 40
0.1114646968264304
 40
0.1387746559238726
 40
0.1661633187181307
 40
0.1937816021976543
 40
0.2217767100559308
 40
0.2502900103661719
 40
0.3748768965488318
 40
0.4995674873999948
 40
0.6244318474370707
 40
0.7493994158579853
 40
0.8003805759864333
 40
0.8500561847976726
 40
0.8992944787291502
 40
0.9489866222086533
 40
0.9999999999999999
 40
0.9999999999999999
 40
0.9999999999999999
 40
0.9999999999999999
 10
55.25405265322083
 20
217.6145077373284
 30
0.0
 10
55.2549745021967
 20
217.566444977003
 30
0.0
 10
55.25680158739084
 20
217.4711856014678
 30
0.0
 10
55.27197111030065
 20
217.3300234900745
 30
0.0
 10
55.29631310863784
 20
217.1921282506631
 30
0.0
 10
55.33067615048474
 20
217.0575105084471
 30
0.0
 10
55.37483627534458
 20
216.9261836821922
 30
0.0
 10
55.42885245154811
 20
216.7981584634875
 30
0.0
 10
55.49268608128352
 20
216.6734504949385
 30
0.0
 10
55.56638983334786
 20
216.5520470205653
 30
0.0
 10
55.74254992728391
 20
216.3025839791196
 30
0.0
 10
56.08504879151123
 20
215.9684901344588
 30
0.0
 10
56.67044516382329
 20
215.7055389117928
 30
0.0
 10
57.30816827247234
 20
215.6263897709459
 30
0.0
 10
57.81247956166742
 20
215.7436952839101
 30
0.0
 10
58.1575586187035
 20
215.9052086231396
 30
0.0
 10
58.37158186720003
 20
216.0413800602218
 30
0.0
 10
58.56303002905722
 20
216.2040510327546
 30
0.0
 10
58.73418528133795
 20
216.3916657745014
 30
0.0
 10
58.82703804294637
 20
216.534143831749
 30
0.0
 10
58.87407352766583
 20
216.6063175007755
 30
0.0
  0
LINE
  5
7F
330
1F
100
AcDbEntity
  8
0
  6
Continuous
 62
     7
370
    25
100
AcDbLine
 10
55.2540526532
 20
227.9060361274
 30
0.0
 11
55.2540526532
 21
217.6145077373
 31
0.0
  0
ARC
  5
80
330
1F
100
AcDbEntity
  8
0
  6
Continuous
 62
     7
370
    25
100
AcDbCircle
 10
48.5040526532
 20
227.9060361274
 30
0.0
 40
6.750000000000007
100
AcDbArc
 50
0.0
 51
180.0
  0
LINE
  5
81
330
1F
100
AcDbEntity
  8
0
  6
Continuous
 62
     7
370
    25
100
AcDbLine
 10
41.7540526532
 20
217.6144854611
 30
0.0
 11
41.7540526532
 21
227.9060361274
 31
0.0
  0
SPLINE
  5
82
330
1F
100
AcDbEntity
  8
0
  6
Continuous
 62
     7
370
    25
100
AcDbSpline
210
0.0
220
0.0
230
1.0
 70
     8
 71
     3
 72
    25
 73
    21
 74
     0
 42
0.00000001
 43
0.00000001
 40
0.0
 40
0.0
 40
0.0
 40
0.0
 40
0.0284933667031412
 40
0.0564732510248598
 40
0.0840812509287607
 40
0.1114647339466485
 40
0.1387747024041266
 40
0.1661633745801576
 40
0.1937816674572349
 40
0.2217767847240388
 40
0.2502900944509087
 40
0.3751284535097172
 40
0.5000701820819196
 40
0.6246983309396086
 40
0.7494293309129468
 40
0.8004041833104016
 40
0.850073966884882
 40
0.8993066022531141
 40
0.9489929236287059
 40
1.0
 40
1.0
 40
1.0
 40
1.0
 10
38.134064996284
 20
216.6063035898604
 30
0.0
 10
38.15969822024356
 20
216.5656369712081
 30
0.0
 10
38.21050272875696
 20
216.4850365919194
 30
0.0
 10
38.29645631091822
 20
216.37203895602
 30
0.0
 10
38.38857312318876
 20
216.2665791958117
 30
0.0
 10
38.48757407271095
 20
216.1691050384661
 30
0.0
 10
38.59326050511803
 20
216.0795122076608
 30
0.0
 10
38.7056773775349
 20
215.9978403216239
 30
0.0
 10
38.82478354412825
 20
215.9240828772091
 30
0.0
 10
38.95063075747416
 20
215.8582559599645
 30
0.0
 10
39.23076677692259
 20
215.7355981287283
 30
0.0
 10
39.69756203753266
 20
215.6265574834223
 30
0.0
 10
40.33503070080641
 20
215.7047931445267
 30
0.0
 10
40.92117461245382
 20
215.9671308041081
 30
0.0
 10
41.29150902023554
 20
216.3277459077324
 30
0.0
 10
41.50316252186879
 20
216.6440485564426
 30
0.0
 10
41.61595819350109
 20
216.8712246643481
 30
0.0
 10
41.69573876457749
 20
217.1094123152229
 30
0.0
 10
41.74526153658876
 20
217.3584589671054
 30
0.0
 10
41.75109676821093
 20
217.5284002790451
 30
0.0
 10
41.75405265322083
 20
217.6144854610998
 30
0.0
  0
ARC
  5
83
330
1F
100
AcDbEntity
  8
0
  6
Continuous
 62
     7
370
    25
100
AcDbCircle
 10
20.3284911062
 20
205.8544880016
 30
0.0
 40
20.79999999999999
100
AcDbArc
 50
31.1254895547
 51
88.8745364661
  0
SPLINE
  5
84
330
1F
100
AcDbEntity
  8
0
  6
Continuous
 62
     7
370
    25
100
AcDbSpline
210
0.0
220
0.0
230
1.0
 70
     8
 71
     3
 72
    25
 73
    21
 74
     0
 42
0.00000001
 43
0.00000001
 40
0.0
 40
0.0
 40
0.0
 40
0.0
 40
0.0284933574763916
 40
0.0564732325345251
 40
0.0840812231387595
 40
0.1114646968242084
 40
0.1387746559216481
 40
0.1661633187161232
 40
0.1937816021960725
 40
0.2217767100549758
 40
0.2502900103660293
 40
0.374876896546655
 40
0.4995674873999357
 40
0.6244318474349769
 40
0.7493994158578089
 40
0.80038057598545
 40
0.8500561847962546
 40
0.8992944787277266
 40
0.9489866222076977
 40
1.0
 40
1.0
 40
1.0
 40
1.0
 10
19.80014807239945
 20
230.289600456829
 30
0.0
 10
19.75898542547066
 20
230.2647707320357
 30
0.0
 10
19.67740192890755
 20
230.2155587420769
 30
0.0
 10
19.56273671584656
 20
230.1318404941792
 30
0.0
 10
19.45548693462566
 20
230.0418120855362
 30
0.0
 10
19.35608607099086
 20
229.9447439472382
 30
0.0
 10
19.26443376568563
 20
229.8408367441477
 30
0.0
 10
19.18056876206331
 20
229.7300447539871
 30
0.0
 10
19.10448530811157
 20
229.6124092247445
 30
0.0
 10
19.0361986912265
 20
229.4878781659137
 30
0.0
 10
18.9082374069934
 20
229.210587528712
 30
0.0
 10
18.79015308238168
 20
228.7469278891917
 30
0.0
 10
18.85512882975259
 20
228.1084841481562
 30
0.0
 10
19.10544521741723
 20
227.5166251650594
 30
0.0
 10
19.45919041624371
 20
227.1385315336839
 30
0.0
 10
19.77160459958246
 20
226.9204409735864
 30
0.0
 10
19.99654414761163
 20
226.8031771219293
 30
0.0
 10
20.23314542321204
 20
226.7187136365196
 30
0.0
 10
20.48120218183213
 20
226.6642962109269
 30
0.0
 10
20.65101817969698
 20
226.6551223891863
 30
0.0
 10
20.73704015291964
 20
226.6504752990532
 30
0.0
  0
LINE
  5
85
330
1F
100
AcDbEntity
  8
0
  6
Continuous
 62
     7
370
    25
100
AcDbLine
 10
28.712873102
 20
235.4353646519
 30
0.0
 11
19.8001480724
 21
230.2896004568
 31
0.0
  0
ARC
  5
86
330
1F
100
AcDbEntity
  8
0
  6
Continuous
 62
     7
370
    25
100
AcDbCircle
 10
25.337873102
 20
241.2810361274
 30
0.0
 40
6.750000000000015
100
AcDbArc
 50
300.0
 51
120.0
  0
SPLINE
  5
87
330
1F
100
AcDbEntity
  8
0
  6
Continuous
 62
     7
370
    25
100
AcDbSpline
210
0.0
220
0.0
230
1.0
 70
     8
 71
     3
 72
    25
 73
    21
 74
     0
 42
0.00000001
 43
0.00000001
 40
0.0
 40
0.0
 40
0.0
 40
0.0
 40
0.028493366703088
 40
0.0564732510247606
 40
0.0840812509286263
 40
0.1114647339464869
 40
0.1387747024039456
 40
0.1661633745799617
 40
0.1937816674570286
 40
0.2217767847238218
 40
0.2502900944506826
 40
0.3751284535104397
 40
0.5000701820817331
 40
0.6246983309404095
 40
0.7494293309124501
 40
0.8004041833147656
 40
0.8500739668916181
 40
0.8993066022597759
 40
0.9489929236330248
 40
1.0
 40
1.0
 40
1.0
 40
1.0
 10
10.36702384000206
 20
244.6118426064405
 30
0.0
 10
10.34462212714302
 20
244.5693102739857
 30
0.0
 10
10.30022240538126
 20
244.4850120893445
 30
0.0
 10
10.24534037320542
 20
244.3540752857007
 30
0.0
 10
10.20006794792295
 20
244.2215699060582
 30
0.0
 10
10.16515332620972
 20
244.087095490104
 30
0.0
 10
10.14040687493788
 20
243.9507719394049
 30
0.0
 10
10.1258853830621
 20
243.8125801290628
 30
0.0
 10
10.12156264577582
 20
243.6725524408416
 30
0.0
 10
10.12747846986017
 20
243.5306520984694
 30
0.0
 10
10.16132168175636
 20
243.2267182734988
 30
0.0
 10
10.30028734316926
 20
242.7679413967989
 30
0.0
 10
10.6867757447895
 20
242.2549951708444
 30
0.0
 10
11.20703877815801
 20
241.8785484828738
 30
0.0
 10
11.7045078227662
 20
241.7381370296355
 30
0.0
 10
12.08426070265048
 20
241.7129910447607
 30
0.0
 10
12.33739881905283
 20
241.7288951816296
 30
0.0
 10
12.58356566111308
 20
241.7788970057743
 30
0.0
 10
12.82400777436283
 20
241.8605323530759
 30
0.0
 10
12.97409888345187
 20
241.940449550219
 30
0.0
 10
13.05012878049694
 20
241.9809322697338
 30
0.0
  0
SPLINE
  5
88
330
1F
100
AcDbEntity
  8
0
  6
Continuous
 62
     7
370
    25
100
AcDbSpline
210
0.0
220
0.0
230
1.0
 70
     8
 71
     3
 72
    25
 73
    21
 74
     0
 42
0.00000001
 43
0.00000001
 40
0.0
 40
0.0
 40
0.0
 40
0.0
 40
0.0284933574770193
 40
0.0564732325356199
 40
0.0840812231401642
 40
0.1114646968257664
 40
0.138774655923205
 40
0.1661633187175353
 40
0.1937816021972039
 40
0.221776710055709
 40
0.2502900103662469
 40
0.374876896549064
 40
0.4995674874000632
 40
0.6244318474369609
 40
0.7493994158579688
 40
0.8003805759862304
 40
0.8500561847973682
 40
0.8992944787288392
 40
0.948986622208443
 40
1.0
 40
1.0
 40
1.0
 40
1.0
 10
13.05014807239938
 20
267.3311288469201
 30
0.0
 10
13.0080635764941
 20
267.3543618824513
 30
0.0
 10
12.9246529947359
 20
267.4004092680261
 30
0.0
 10
12.79481825876363
 20
267.4578531315196
 30
0.0
 10
12.66322647920459
 20
267.5057199622865
 30
0.0
 10
12.52946257372239
 20
267.5432695662038
 30
0.0
 10
12.39365014355725
 20
267.5706891893684
 30
0.0
 10
12.25576896373183
 20
267.5879224179131
 30
0.0
 10
12.11585188004558
 20
267.5949948572209
 30
0.0
 10
11.97386151109741
 20
267.5918672727653
 30
0.0
 10
11.66974013293091
 20
267.5640396770063
 30
0.0
 10
11.2091569440923
 20
267.4344738821489
 30
0.0
 10
10.68873631915169
 20
267.0589813637761
 30
0.0
 10
10.30132959816742
 20
266.5462715215287
 30
0.0
 10
10.15076350780009
 20
266.0508723771892
 30
0.0
 10
10.11809863410377
 20
265.6712684778676
 30
0.0
 10
10.1290149336383
 20
265.4178331891285
 30
0.0
 10
10.17416804738144
 20
265.170698731186
 30
0.0
 10
10.25106955371859
 20
264.9286665638459
 30
0.0
 10
10.3280327899729
 20
264.7770146848572
 30
0.0
 10
10.36701927847466
 20
264.7001939256972
 30
0.0
  0
ARC
  5
89
330
1F
100
AcDbEntity
  8
0
  6
Continuous
 62
     7
370
    25
100
AcDbCircle
 10
25.337873102
 20
268.0310361274
 30
0.0
 40
6.75000000000006
100
AcDbArc
 50
240.0
 51
60.0
  0
LINE
  5
8A
330
1F
100
AcDbEntity
  8
0
  6
Continuous
 62
     7
370
    25
100
AcDbLine
 10
19.8001287805
 20
279.0224829362
 30
0.0
 11
28.712873102
 21
273.876707603
 31
0.0
  0
SPLINE
  5
8B
330
1F
100
AcDbEntity
  8
0
  6
Continuous
 62
     7
370
    25
100
AcDbSpline
210
0.0
220
0.0
230
1.0
 70
     8
 71
     3
 72
    25
 73
    21
 74
     0
 42
0.00000001
 43
0.00000001
 40
0.0
 40
0.0
 40
0.0
 40
0.0
 40
0.0284933667025309
 40
0.0564732510237885
 40
0.0840812509273789
 40
0.1114647339451059
 40
0.138774702402565
 40
0.1661633745787119
 40
0.1937816674560275
 40
0.221776784723182
 40
0.2502900944505003
 40
0.3751284535044709
 40
0.5000701820812207
 40
0.6246983309356624
 40
0.7494293309124186
 40
0.800404183314636
 40
0.8500739668914364
 40
0.8993066022595958
 40
0.9489929236329037
 40
1.0
 40
1.0
 40
1.0
 40
1.0
 10
20.73701149691657
 20
282.6615751440365
 30
0.0
 10
20.68897656009995
 20
282.6597094302334
 30
0.0
 10
20.59377232982849
 20
282.6560116248795
 30
0.0
 10
20.45293671549678
 20
282.6380724571331
 30
0.0
 10
20.31554747794852
 20
282.6110268376975
 30
0.0
 10
20.18163190671721
 20
282.5740265790876
 30
0.0
 10
20.05119902304181
 20
282.5272958591929
 30
0.0
 10
19.92426065875206
 20
282.4707759348871
 30
0.0
 10
19.80083175487466
 20
282.4045056910802
 30
0.0
 10
19.68090036561483
 20
282.3284322659526
 30
0.0
 10
19.43460755807287
 20
282.1471562722283
 30
0.0
 10
19.10677795889474
 20
281.7974200408356
 30
0.0
 10
18.85579769724452
 20
281.2062381538012
 30
0.0
 10
18.7899168189585
 20
280.5674538062588
 30
0.0
 10
18.9170514557863
 20
280.0664272494131
 30
0.0
 10
19.0851508340251
 20
279.7249786158282
 30
0.0
 10
19.22549327878006
 20
279.5137066447923
 30
0.0
 10
19.39187954975498
 20
279.325520818071
 30
0.0
 10
19.58279889099014
 20
279.1581095135078
 30
0.0
 10
19.72705476846007
 20
279.0680853987259
 30
0.0
 10
19.8001287804969
 20
279.0224829361951
 30
0.0
  0
ARC
  5
8C
330
1F
100
AcDbEntity
  8
0
  6
Continuous
 62
     7
370
    25
100
AcDbCircle
 10
20.3284530058
 20
303.457562256
 30
0.0
 40
20.80000000000004
100
AcDbArc
 50
271.1254895546
 51
328.8745364661
  0
SPLINE
  5
8D
330
1F
100
AcDbEntity
  8
0
  6
Continuous
 62
     7
370
    25
100
AcDbSpline
210
0.0
220
0.0
230
1.0
 70
     8
 71
     3
 72
    25
 73
    21
 74
     0
 42
0.00000001
 43
0.00000001
 40
0.0
 40
0.0
 40
0.0
 40
0.0
 40
0.028493357476895
 40
0.0564732325354118
 40
0.0840812231399047
 40
0.1114646968254888
 40
0.1387746559229303
 40
0.1661633187172764
 40
0.1937816021969655
 40
0.2217767100554854
 40
0.2502900103660328
 40
0.3748768965484013
 40
0.4995674874000102
 40
0.6244318474355273
 40
0.7493994158577139
 40
0.8003805759850552
 40
0.8500561847956994
 40
0.8992944787271758
 40
0.9489866222073292
 40
1.0
 40
1.0
 40
1.0
 40
1.0
 10
41.75405265322082
 20
291.6975645175106
 30
0.0
 10
41.75313080424495
 20
291.7456272778354
 30
0.0
 10
41.7513037190508
 20
291.8408866533695
 30
0.0
 10
41.73613419614097
 20
291.9820487647614
 30
0.0
 10
41.71179219780376
 20
292.1199440041718
 30
0.0
 10
41.67742915595685
 20
292.2545617463872
 30
0.0
 10
41.63326903109698
 20
292.3858885726422
 30
0.0
 10
41.57925285489345
 20
292.5139137913473
 30
0.0
 10
41.51541922515804
 20
292.6386217598973
 30
0.0
 10
41.44171547309368
 20
292.7600252342717
 30
0.0
 10
41.26555537915951
 20
293.0094882757194
 30
0.0
 10
40.92305651493291
 20
293.3435821203825
 30
0.0
 10
40.33766014262127
 20
293.6065333430458
 30
0.0
 10
39.69993703397204
 20
293.6856824838869
 30
0.0
 10
39.19562574477912
 20
293.5683769709282
 30
0.0
 10
38.85054668774067
 20
293.4068636317052
 30
0.0
 10
38.6365234392459
 20
293.2706921946254
 30
0.0
 10
38.4450752773887
 20
293.1080212220924
 30
0.0
 10
38.27392002510642
 20
292.9204064803425
 30
0.0
 10
38.18106726349637
 20
292.777928423092
 30
0.0
 10
38.1340317787758
 20
292.7057547540635
 30
0.0
  0
LINE
  5
8E
330
1F
100
AcDbEntity
  8
0
  6
Continuous
 62
     7
370
    25
100
AcDbLine
 10
41.7540526532
 20
281.4060361274
 30
0.0
 11
41.7540526532
 21
291.6975645175
 31
0.0
  0
ARC
  5
8F
330
1F
100
AcDbEntity
  8
0
  6
Continuous
 62
     7
370
    25
100
AcDbCircle
 10
48.5040526532
 20
281.4060361274
 30
0.0
 40
6.75
100
AcDbArc
 50
180.0
 51
0.0
  0
LINE
  5
90
330
1F
100
AcDbEntity
  8
0
  6
Continuous
 62
     7
370
    25
100
AcDbLine
 10
55.2540526532
 20
291.6975867939
 30
0.0
 11
55.2540526532
 21
281.4060361274
 31
0.0
  0
SPLINE
  5
91
330
1F
100
AcDbEntity
  8
0
  6
Continuous
 62
     7
370
    25
100
AcDbSpline
210
0.0
220
0.0
230
1.0
 70
     8
 71
     3
 72
    25
 73
    21
 74
     0
 42
0.00000001
 43
0.00000001
 40
0.0
 40
0.0
 40
0.0
 40
0.0
 40
0.0284933667034373
 40
0.0564732510253707
 40
0.0840812509294116
 40
0.1114647339473638
 40
0.1387747024048299
 40
0.166163374580776
 40
0.193781667457699
 40
0.2217767847242838
 40
0.2502900944508751
 40
0.3751284535112026
 40
0.500070182081886
 40
0.6246983309396946
 40
0.749429330912628
 40
0.8004041833128983
 40
0.8500739668887346
 40
0.8993066022569073
 40
0.9489929236311508
 40
1.0
 40
1.0
 40
1.0
 40
1.0
 10
58.87404031013536
 20
292.7057686650155
 30
0.0
 10
58.84840708617654
 20
292.7464352836676
 30
0.0
 10
58.7976025776647
 20
292.8270356629558
 30
0.0
 10
58.71164899550604
 20
292.9400332988544
 30
0.0
 10
58.6195321832384
 20
293.0454930590619
 30
0.0
 10
58.52053123371939
 20
293.1429672164066
 30
0.0
 10
58.41484480131581
 20
293.2325600472111
 30
0.0
 10
58.30242792890272
 20
293.314231933247
 30
0.0
 10
58.18332176231345
 20
293.3879893776607
 30
0.0
 10
58.05747454897193
 20
293.4538162949044
 30
0.0
 10
57.77733852952893
 20
293.5764741261398
 30
0.0
 10
57.31054326893224
 20
293.6855147714505
 30
0.0
 10
56.67307460567146
 20
293.60727911036
 30
0.0
 10
56.08693069403596
 20
293.3449414507971
 30
0.0
 10
55.71659628624677
 20
292.9843263471931
 30
0.0
 10
55.50494278460033
 20
292.6680236984946
 30
0.0
 10
55.39214711295598
 20
292.4408475905938
 30
0.0
 10
55.31236654187096
 20
292.2026599397279
 30
0.0
 10
55.26284376985404
 20
291.9536132878589
 30
0.0
 10
55.25700853823109
 20
291.7836719759295
 30
0.0
 10
55.25405265322082
 20
291.6975867938809
 30
0.0
  0
ARC
  5
92
330
1F
100
AcDbEntity
  8
0
  6
Continuous
 62
     7
370
    25
100
AcDbCircle
 10
76.6796142003
 20
303.4575842533
 30
0.0
 40
20.80000000000003
100
AcDbArc
 50
211.1254895546
 51
268.8745364661
  0
SPLINE
  5
93
330
1F
100
AcDbEntity
  8
0
  6
Continuous
 62
     7
370
    25
100
AcDbSpline
210
0.0
220
0.0
230
1.0
 70
     8
 71
     3
 72
    25
 73
    21
 74
     0
 42
0.00000001
 43
0.00000001
 40
0.0
 40
0.0
 40
0.0
 40
0.0
 40
0.0284933574763288
 40
0.0564732325344134
 40
0.0840812231386156
 40
0.111464696824051
 40
0.1387746559214914
 40
0.1661633187159817
 40
0.1937816021959586
 40
0.2217767100549053
 40
0.250290010366011
 40
0.3748768965466735
 40
0.4995674873999497
 40
0.6244318474348722
 40
0.749399415857769
 40
0.8003805759852637
 40
0.8500561847959888
 40
0.8992944787274613
 40
0.9489866222075202
 40
0.9999999999999999
 40
0.9999999999999999
 40
0.9999999999999999
 40
0.9999999999999999
 10
77.20795723404221
 20
279.02247179801
 30
0.0
 10
77.24911988097091
 20
279.0473015228033
 30
0.0
 10
77.33070337753384
 20
279.0965135127619
 30
0.0
 10
77.44536859059464
 20
279.1802317606595
 30
0.0
 10
77.5526183718154
 20
279.2702601693025
 30
0.0
 10
77.65201923545013
 20
279.3673283076004
 30
0.0
 10
77.74367154075536
 20
279.4712355106909
 30
0.0
 10
77.82753654437772
 20
279.5820275008516
 30
0.0
 10
77.90361999832963
 20
279.6996630300943
 30
0.0
 10
77.97190661521489
 20
279.8241940889251
 30
0.0
 10
78.09986789944845
 20
280.1014847261269
 30
0.0
 10
78.21795222406082
 20
280.5651443656473
 30
0.0
 10
78.15297647668915
 20
281.2035881066828
 30
0.0
 10
77.90266008902356
 20
281.7954470897788
 30
0.0
 10
77.54891489019808
 20
282.1735407211546
 30
0.0
 10
77.23650070686003
 20
282.3916312812527
 30
0.0
 10
77.01156115883126
 20
282.5088951329097
 30
0.0
 10
76.77495988323082
 20
282.5933586183195
 30
0.0
 10
76.52690312461027
 20
282.6477760439121
 30
0.0
 10
76.35708712674497
 20
282.6569498656527
 30
0.0
 10
76.271065153522
 20
282.6615969557858
 30
0.0
  0
LINE
  5
94
330
1F
100
AcDbEntity
  8
0
  6
Continuous
 62
     7
370
    25
100
AcDbLine
 10
68.2952322045
 20
273.876707603
 30
0.0
 11
77.207957234
 21
279.022471798
 31
0.0
  0
LINE
  5
95
330
1F
100
AcDbEntity
  8
0
  6
Continuous
 62
     7
370
    25
100
AcDbLine
 10
13.0501287805
 20
241.9809322697
 30
0.0
 11
21.962873102
 21
247.126707603
 31
0.0
  0
ARC
  5
96
330
1F
100
AcDbEntity
  8
0
  6
Continuous
 62
     7
370
    25
100
AcDbCircle
 10
-7.8471085413
 20
254.6560141301
 30
0.0
 40
20.80000000000003
100
AcDbArc
 50
331.1254895546
 51
28.8745364661
  0
LINE
  5
97
330
1F
100
AcDbEntity
  8
0
  6
Continuous
 62
     7
370
    25
100
AcDbLine
 10
21.962873102
 20
262.1853646519
 30
0.0
 11
13.0501480724
 21
267.3311288469
 31
0.0
  0
CIRCLE
  5
98
330
1F
100
AcDbEntity
  8
0
  6
Continuous
 62
     7
370
    25
100
AcDbCircle
 10
127.271817454
 20
258.5515731733
 30
0.0
 40
5.0
  0
ARC
  5
99
330
1F
100
AcDbEntity
  8
0
  6
Continuous
 62
     7
370
    25
100
AcDbCircle
 10
150.4379970052
 20
271.9265731733
 30
0.0
 40
6.750000000000012
100
AcDbArc
 50
120.0
 51
300.0
  0
LINE
  5
9A
330
1F
100
AcDbEntity
  8
0
  6
Continuous
 62
     7
370
    25
100
AcDbLine
 10
162.7257413267
 20
271.226677031
 30
0.0
 11
153.8129970052
 21
266.0809016977
 31
0.0
  0
SPLINE
  5
9B
330
1F
100
AcDbEntity
  8
0
  6
Continuous
 62
     7
370
    25
100
AcDbSpline
210
0.0
220
0.0
230
1.0
 70
     8
 71
     3
 72
    25
 73
    21
 74
     0
 42
0.00000001
 43
0.00000001
 40
0.0
 40
0.0
 40
0.0
 40
0.0
 40
0.028493366702545
 40
0.0564732510238127
 40
0.084081250927409
 40
0.1114647339451397
 40
0.1387747024025988
 40
0.1661633745787415
 40
0.1937816674560509
 40
0.2217767847231954
 40
0.2502900944505017
 40
0.3751284535078762
 40
0.5000701820815793
 40
0.6246983309387631
 40
0.7494293309123851
 40
0.8004041833144575
 40
0.8500739668911785
 40
0.8993066022593369
 40
0.9489929236327309
 40
1.0
 40
1.0
 40
1.0
 40
1.0
 10
165.4088462671932
 20
268.5957666942672
 30
0.0
 10
165.4312479800518
 20
268.6382990267211
 30
0.0
 10
165.4756477018128
 20
268.7225972113609
 30
0.0
 10
165.5305297339876
 20
268.853534015003
 30
0.0
 10
165.5758021592694
 20
268.9860393946442
 30
0.0
 10
165.6107167809822
 20
269.1205138105978
 30
0.0
 10
165.6354632322541
 20
269.2568373612969
 30
0.0
 10
165.6499847241301
 20
269.3950291716395
 30
0.0
 10
165.6543074614171
 20
269.535056859862
 30
0.0
 10
165.6483916373337
 20
269.676957202236
 30
0.0
 10
165.6145484254418
 20
269.9808910272043
 30
0.0
 10
165.4755827640278
 20
270.439667903905
 30
0.0
 10
165.0890943624105
 20
270.9526141298583
 30
0.0
 10
164.5688313290408
 20
271.3290608178347
 30
0.0
 10
164.071362284432
 20
271.469472271071
 30
0.0
 10
163.691609404546
 20
271.4946182559479
 30
0.0
 10
163.4384712881442
 20
271.4787141190791
 30
0.0
 10
163.1923044460839
 20
271.4287122949345
 30
0.0
 10
162.9518623328335
 20
271.3470769476324
 30
0.0
 10
162.8017712237439
 20
271.2671597504889
 30
0.0
 10
162.7257413266984
 20
271.2266770309739
 30
0.0
  0
ARC
  5
9C
330
1F
100
AcDbEntity
  8
0
  6
Continuous
 62
     7
370
    25
100
AcDbCircle
 10
183.6229786485
 20
258.5515951706
 30
0.0
 40
20.80000000000005
100
AcDbArc
 50
151.1254895546
 51
208.8745364661
  0
SPLINE
  5
9D
330
1F
100
AcDbEntity
  8
0
  6
Continuous
 62
     7
370
    25
100
AcDbSpline
210
0.0
220
0.0
230
1.0
 70
     8
 71
     3
 72
    25
 73
    21
 74
     0
 42
0.00000001
 43
0.00000001
 40
0.0
 40
0.0
 40
0.0
 40
0.0
 40
0.0284933574771714
 40
0.0564732325358864
 40
0.0840812231405028
 40
0.1114646968261402
 40
0.138774655923575
 40
0.1661633187178671
 40
0.1937816021974627
 40
0.2217767100558586
 40
0.2502900103662651
 40
0.3748768965515486
 40
0.4995674874002385
 40
0.6244318474352468
 40
0.7493994158574733
 40
0.8003805759836996
 40
0.850056184793742
 40
0.8992944787252105
 40
0.9489866222060103
 40
1.0
 40
1.0
 40
1.0
 40
1.0
 10
162.7257220348057
 20
245.8764804537819
 30
0.0
 10
162.7678065307112
 20
245.8532474182507
 30
0.0
 10
162.8512171124698
 20
245.8072000326761
 30
0.0
 10
162.9810518484425
 20
245.7497561691828
 30
0.0
 10
163.1126436280018
 20
245.7018893384163
 30
0.0
 10
163.2464075334841
 20
245.6643397344994
 30
0.0
 10
163.382219963649
 20
245.6369201113354
 30
0.0
 10
163.5201011434741
 20
245.6196868827913
 30
0.0
 10
163.6600182271598
 20
245.6126144434841
 30
0.0
 10
163.8020085961072
 20
245.6157420279404
 30
0.0
 10
164.1061299742766
 20
245.643569623702
 30
0.0
 10
164.566713163115
 20
245.7731354185569
 30
0.0
 10
165.0871337880508
 20
246.1486279369325
 30
0.0
 10
165.4745405090168
 20
246.661337779184
 30
0.0
 10
165.6251065993926
 20
247.1567369235126
 30
0.0
 10
165.6577714731004
 20
247.5363408228296
 30
0.0
 10
165.6468551735679
 20
247.7897761115632
 30
0.0
 10
165.6017020598243
 20
248.0369105695055
 30
0.0
 10
165.5248005534835
 20
248.2789427368505
 30
0.0
 10
165.4478373172261
 20
248.4305946158441
 30
0.0
 10
165.4088508287223
 20
248.5074153750074
 30
0.0
  0
LINE
  5
9E
330
1F
100
AcDbEntity
  8
0
  6
Continuous
 62
     7
370
    25
100
AcDbLine
 10
153.8129970052
 20
251.0222446488
 30
0.0
 11
162.7257220348
 21
245.8764804538
 31
0.0
  0
ARC
  5
9F
330
1F
100
AcDbEntity
  8
0
  6
Continuous
 62
     7
370
    25
100
AcDbCircle
 10
150.4379970052
 20
245.1765731733
 30
0.0
 40
6.750000000000012
100
AcDbArc
 50
60.0
 51
240.0
  0
LINE
  5
A0
330
1F
100
AcDbEntity
  8
0
  6
Continuous
 62
     7
370
    25
100
AcDbLine
 10
155.9757413267
 20
234.1851263645
 30
0.0
 11
147.0629970052
 21
239.3309016977
 31
0.0
  0
SPLINE
  5
A1
330
1F
100
AcDbEntity
  8
0
  6
Continuous
 62
     7
370
    25
100
AcDbSpline
210
0.0
220
0.0
230
1.0
 70
     8
 71
     3
 72
    25
 73
    21
 74
     0
 42
0.00000001
 43
0.00000001
 40
0.0
 40
0.0
 40
0.0
 40
0.0
 40
0.0284933667028916
 40
0.0564732510244178
 40
0.0840812509281862
 40
0.1114647339459991
 40
0.1387747024034582
 40
0.1661633745795197
 40
0.1937816674566737
 40
0.2217767847235942
 40
0.2502900944506159
 40
0.3751284535088671
 40
0.500070182081608
 40
0.6246983309392969
 40
0.7494293309124412
 40
0.8004041833147348
 40
0.8500739668915764
 40
0.899306602259734
 40
0.9489929236329963
 40
0.9999999999999999
 40
0.9999999999999999
 40
0.9999999999999999
 40
0.9999999999999999
 10
155.0388586102787
 20
230.5460341566711
 30
0.0
 10
155.0868935470959
 20
230.5478998704743
 30
0.0
 10
155.1820977773684
 20
230.5515976758282
 30
0.0
 10
155.3229333917015
 20
230.5695368435746
 30
0.0
 10
155.4603226292507
 20
230.5965824630102
 30
0.0
 10
155.5942382004825
 20
230.6335827216201
 30
0.0
 10
155.7246710841579
 20
230.6803134415148
 30
0.0
 10
155.8516094484472
 20
230.7368333658205
 30
0.0
 10
155.9750383523237
 20
230.8031036096274
 30
0.0
 10
156.0949697415823
 20
230.8791770347549
 30
0.0
 10
156.3412625491274
 20
231.0604530284854
 30
0.0
 10
156.6690921483107
 20
231.4101892598739
 30
0.0
 10
156.9200724099543
 20
232.0013711469193
 30
0.0
 10
156.9859532882272
 20
232.6401554944542
 30
0.0
 10
156.8588186514073
 20
233.1411820513004
 30
0.0
 10
156.6907192731696
 20
233.4826306848796
 30
0.0
 10
156.5503768284147
 20
233.6939026559157
 30
0.0
 10
156.3839905574397
 20
233.8820884826369
 30
0.0
 10
156.1930712162048
 20
234.0494997872
 30
0.0
 10
156.048815338735
 20
234.1395239019818
 30
0.0
 10
155.9757413266984
 20
234.1851263645125
 30
0.0
  0
ARC
  5
A2
330
1F
100
AcDbEntity
  8
0
  6
Continuous
 62
     7
370
    25
100
AcDbCircle
 10
155.4474171014
 20
209.7500470447
 30
0.0
 40
20.80000000000001
100
AcDbArc
 50
91.1254895546
 51
148.8745364661
  0
SPLINE
  5
A3
330
1F
100
AcDbEntity
  8
0
  6
Continuous
 62
     7
370
    25
100
AcDbSpline
210
0.0
220
0.0
230
1.0
 70
     8
 71
     3
 72
    25
 73
    21
 74
     0
 42
0.00000001
 43
0.00000001
 40
0.0
 40
0.0
 40
0.0
 40
0.0
 40
0.0284933574772726
 40
0.0564732325360713
 40
0.0840812231407553
 40
0.1114646968264304
 40
0.1387746559238726
 40
0.1661633187181307
 40
0.1937816021976543
 40
0.2217767100559308
 40
0.2502900103661719
 40
0.3748768965488318
 40
0.4995674873999948
 40
0.6244318474370707
 40
0.7493994158579853
 40
0.8003805759864333
 40
0.8500561847976726
 40
0.8992944787291502
 40
0.9489866222086533
 40
0.9999999999999999
 40
0.9999999999999999
 40
0.9999999999999999
 40
0.9999999999999999
 10
134.0218174539744
 20
221.5100447831971
 30
0.0
 10
134.0227393029503
 20
221.4619820228716
 30
0.0
 10
134.0245663881445
 20
221.3667226473364
 30
0.0
 10
134.0397359110543
 20
221.2255605359431
 30
0.0
 10
134.0640779093914
 20
221.0876652965317
 30
0.0
 10
134.0984409512384
 20
220.9530475543158
 30
0.0
 10
134.1426010760982
 20
220.8217207280608
 30
0.0
 10
134.1966172523018
 20
220.6936955093562
 30
0.0
 10
134.2604508820371
 20
220.5689875408071
 30
0.0
 10
134.3341546341015
 20
220.447584066434
 30
0.0
 10
134.5103147280375
 20
220.1981210249883
 30
0.0
 10
134.8528135922649
 20
219.8640271803274
 30
0.0
 10
135.4382099645769
 20
219.6010759576615
 30
0.0
 10
136.075933073226
 20
219.5219268168145
 30
0.0
 10
136.580244362421
 20
219.6392323297788
 30
0.0
 10
136.9253234194571
 20
219.8007456690083
 30
0.0
 10
137.1393466679536
 20
219.9369171060904
 30
0.0
 10
137.3307948298108
 20
220.0995880786232
 30
0.0
 10
137.5019500820916
 20
220.28720282037
 30
0.0
 10
137.5948028437
 20
220.4296808776176
 30
0.0
 10
137.6418383284195
 20
220.5018545466441
 30
0.0
  0
LINE
  5
A4
330
1F
100
AcDbEntity
  8
0
  6
Continuous
 62
     7
370
    25
100
AcDbLine
 10
134.021817454
 20
231.8015731733
 30
0.0
 11
134.021817454
 21
221.5100447832
 31
0.0
  0
ARC
  5
A5
330
1F
100
AcDbEntity
  8
0
  6
Continuous
 62
     7
370
    25
100
AcDbCircle
 10
127.271817454
 20
231.8015731733
 30
0.0
 40
6.75
100
AcDbArc
 50
0.0
 51
180.0
  0
LINE
  5
A6
330
1F
100
AcDbEntity
  8
0
  6
Continuous
 62
     7
370
    25
100
AcDbLine
 10
120.521817454
 20
221.510022507
 30
0.0
 11
120.521817454
 21
231.8015731733
 31
0.0
  0
SPLINE
  5
A7
330
1F
100
AcDbEntity
  8
0
  6
Continuous
 62
     7
370
    25
100
AcDbSpline
210
0.0
220
0.0
230
1.0
 70
     8
 71
     3
 72
    25
 73
    21
 74
     0
 42
0.00000001
 43
0.00000001
 40
0.0
 40
0.0
 40
0.0
 40
0.0
 40
0.0284933667031412
 40
0.0564732510248598
 40
0.0840812509287607
 40
0.1114647339466485
 40
0.1387747024041266
 40
0.1661633745801576
 40
0.1937816674572349
 40
0.2217767847240388
 40
0.2502900944509087
 40
0.3751284535097172
 40
0.5000701820819196
 40
0.6246983309396086
 40
0.7494293309129468
 40
0.8004041833104016
 40
0.850073966884882
 40
0.8993066022531141
 40
0.9489929236287059
 40
1.0
 40
1.0
 40
1.0
 40
1.0
 10
116.9018297970376
 20
220.5018406357291
 30
0.0
 10
116.9274630209972
 20
220.4611740170767
 30
0.0
 10
116.9782675295106
 20
220.380573637788
 30
0.0
 10
117.0642211116718
 20
220.2675760018886
 30
0.0
 10
117.1563379239424
 20
220.1621162416803
 30
0.0
 10
117.2553388734646
 20
220.0646420843348
 30
0.0
 10
117.3610253058717
 20
219.9750492535294
 30
0.0
 10
117.4734421782885
 20
219.8933773674925
 30
0.0
 10
117.5925483448819
 20
219.8196199230778
 30
0.0
 10
117.7183955582278
 20
219.7537930058332
 30
0.0
 10
117.9985315776762
 20
219.6311351745969
 30
0.0
 10
118.4653268382863
 20
219.5220945292909
 30
0.0
 10
119.10279550156
 20
219.6003301903953
 30
0.0
 10
119.6889394132075
 20
219.8626678499767
 30
0.0
 10
120.0592738209892
 20
220.223282953601
 30
0.0
 10
120.2709273226224
 20
220.5395856023112
 30
0.0
 10
120.3837229942547
 20
220.7667617102167
 30
0.0
 10
120.4635035653311
 20
221.0049493610915
 30
0.0
 10
120.5130263373424
 20
221.253996012974
 30
0.0
 10
120.5188615689646
 20
221.4239373249137
 30
0.0
 10
120.5218174539745
 20
221.5100225069684
 30
0.0
  0
ARC
  5
A8
330
1F
100
AcDbEntity
  8
0
  6
Continuous
 62
     7
370
    25
100
AcDbCircle
 10
99.0962559069
 20
209.7500250475
 30
0.0
 40
20.80000000000002
100
AcDbArc
 50
31.1254895547
 51
88.8745364661
  0
SPLINE
  5
A9
330
1F
100
AcDbEntity
  8
0
  6
Continuous
 62
     7
370
    25
100
AcDbSpline
210
0.0
220
0.0
230
1.0
 70
     8
 71
     3
 72
    25
 73
    21
 74
     0
 42
0.00000001
 43
0.00000001
 40
0.0
 40
0.0
 40
0.0
 40
0.0
 40
0.0284933574763916
 40
0.0564732325345251
 40
0.0840812231387595
 40
0.1114646968242084
 40
0.1387746559216481
 40
0.1661633187161232
 40
0.1937816021960725
 40
0.2217767100549758
 40
0.2502900103660293
 40
0.374876896546655
 40
0.4995674873999357
 40
0.6244318474349769
 40
0.7493994158578089
 40
0.80038057598545
 40
0.8500561847962546
 40
0.8992944787277266
 40
0.9489866222076977
 40
1.0
 40
1.0
 40
1.0
 40
1.0
 10
98.56791287315309
 20
234.1851375026976
 30
0.0
 10
98.52675022622428
 20
234.1603077779043
 30
0.0
 10
98.44516672966118
 20
234.1110957879456
 30
0.0
 10
98.3305015166002
 20
234.0273775400479
 30
0.0
 10
98.22325173537928
 20
233.9373491314048
 30
0.0
 10
98.12385087174448
 20
233.8402809931068
 30
0.0
 10
98.03219856643926
 20
233.7363737900164
 30
0.0
 10
97.94833356281693
 20
233.6255817998558
 30
0.0
 10
97.87225010886519
 20
233.5079462706131
 30
0.0
 10
97.80396349198013
 20
233.3834152117824
 30
0.0
 10
97.67600220774703
 20
233.1061245745806
 30
0.0
 10
97.5579178831353
 20
232.6424649350603
 30
0.0
 10
97.62289363050621
 20
232.0040211940248
 30
0.0
 10
97.87321001817085
 20
231.412162210928
 30
0.0
 10
98.22695521699734
 20
231.0340685795526
 30
0.0
 10
98.53936940033608
 20
230.8159780194551
 30
0.0
 10
98.76430894836525
 20
230.698714167798
 30
0.0
 10
99.00091022396568
 20
230.6142506823882
 30
0.0
 10
99.24896698258576
 20
230.5598332567956
 30
0.0
 10
99.4187829804506
 20
230.550659435055
 30
0.0
 10
99.50480495367327
 20
230.5460123449219
 30
0.0
  0
LINE
  5
AA
330
1F
100
AcDbEntity
  8
0
  6
Continuous
 62
     7
370
    25
100
AcDbLine
 10
107.4806379027
 20
239.3309016977
 30
0.0
 11
98.5679128732
 21
234.1851375027
 31
0.0
  0
ARC
  5
AB
330
1F
100
AcDbEntity
  8
0
  6
Continuous
 62
     7
370
    25
100
AcDbCircle
 10
104.1056379027
 20
245.1765731733
 30
0.0
 40
6.750000000000027
100
AcDbArc
 50
300.0
 51
120.0
  0
SPLINE
  5
AC
330
1F
100
AcDbEntity
  8
0
  6
Continuous
 62
     7
370
    25
100
AcDbSpline
210
0.0
220
0.0
230
1.0
 70
     8
 71
     3
 72
    25
 73
    21
 74
     0
 42
0.00000001
 43
0.00000001
 40
0.0
 40
0.0
 40
0.0
 40
0.0
 40
0.028493366703088
 40
0.0564732510247606
 40
0.0840812509286263
 40
0.1114647339464869
 40
0.1387747024039456
 40
0.1661633745799617
 40
0.1937816674570286
 40
0.2217767847238218
 40
0.2502900944506826
 40
0.3751284535104397
 40
0.5000701820817331
 40
0.6246983309404095
 40
0.7494293309124501
 40
0.8004041833147656
 40
0.8500739668916181
 40
0.8993066022597759
 40
0.9489929236330248
 40
1.0
 40
1.0
 40
1.0
 40
1.0
 10
89.13478864075569
 20
248.5073796523091
 30
0.0
 10
89.11238692789665
 20
248.4648473198544
 30
0.0
 10
89.06798720613489
 20
248.3805491352132
 30
0.0
 10
89.01310517395905
 20
248.2496123315693
 30
0.0
 10
88.96783274867657
 20
248.1171069519268
 30
0.0
 10
88.93291812696336
 20
247.9826325359727
 30
0.0
 10
88.9081716756915
 20
247.8463089852736
 30
0.0
 10
88.89365018381574
 20
247.7081171749315
 30
0.0
 10
88.88932744652945
 20
247.5680894867102
 30
0.0
 10
88.89524327061379
 20
247.426189144338
 30
0.0
 10
88.92908648251
 20
247.1222553193675
 30
0.0
 10
89.06805214392288
 20
246.6634784426675
 30
0.0
 10
89.45454054554313
 20
246.150532216713
 30
0.0
 10
89.97480357891163
 20
245.7740855287425
 30
0.0
 10
90.47227262351983
 20
245.6336740755041
 30
0.0
 10
90.85202550340409
 20
245.6085280906293
 30
0.0
 10
91.10516361980645
 20
245.6244322274982
 30
0.0
 10
91.35133046186671
 20
245.6744340516429
 30
0.0
 10
91.59177257511645
 20
245.7560693989445
 30
0.0
 10
91.7418636842055
 20
245.8359865960876
 30
0.0
 10
91.81789358125056
 20
245.8764693156024
 30
0.0
  0
SPLINE
  5
AD
330
1F
100
AcDbEntity
  8
0
  6
Continuous
 62
     7
370
    25
100
AcDbSpline
210
0.0
220
0.0
230
1.0
 70
     8
 71
     3
 72
    25
 73
    21
 74
     0
 42
0.00000001
 43
0.00000001
 40
0.0
 40
0.0
 40
0.0
 40
0.0
 40
0.0284933574770193
 40
0.0564732325356199
 40
0.0840812231401642
 40
0.1114646968257664
 40
0.138774655923205
 40
0.1661633187175353
 40
0.1937816021972039
 40
0.221776710055709
 40
0.2502900103662469
 40
0.374876896549064
 40
0.4995674874000632
 40
0.6244318474369609
 40
0.7493994158579688
 40
0.8003805759862304
 40
0.8500561847973682
 40
0.8992944787288392
 40
0.948986622208443
 40
1.0
 40
1.0
 40
1.0
 40
1.0
 10
91.81791287315299
 20
271.2266658927887
 30
0.0
 10
91.77582837724773
 20
271.24989892832
 30
0.0
 10
91.69241779548953
 20
271.2959463138948
 30
0.0
 10
91.56258305951725
 20
271.3533901773883
 30
0.0
 10
91.4309912799582
 20
271.4012570081552
 30
0.0
 10
91.29722737447601
 20
271.4388066120725
 30
0.0
 10
91.16141494431088
 20
271.466226235237
 30
0.0
 10
91.02353376448546
 20
271.4834594637817
 30
0.0
 10
90.8836166807992
 20
271.4905319030895
 30
0.0
 10
90.74162631185104
 20
271.487404318634
 30
0.0
 10
90.43750493368454
 20
271.459576722875
 30
0.0
 10
89.97692174484592
 20
271.3300109280176
 30
0.0
 10
89.45650111990531
 20
270.9545184096447
 30
0.0
 10
89.06909439892105
 20
270.4418085673973
 30
0.0
 10
88.91852830855372
 20
269.9464094230578
 30
0.0
 10
88.8858634348574
 20
269.5668055237363
 30
0.0
 10
88.89677973439193
 20
269.3133702349972
 30
0.0
 10
88.94193284813507
 20
269.0662357770547
 30
0.0
 10
89.01883435447222
 20
268.8242036097145
 30
0.0
 10
89.09579759072653
 20
268.6725517307258
 30
0.0
 10
89.13478407922828
 20
268.5957309715658
 30
0.0
  0
ARC
  5
AE
330
1F
100
AcDbEntity
  8
0
  6
Continuous
 62
     7
370
    25
100
AcDbCircle
 10
104.1056379027
 20
271.9265731733
 30
0.0
 40
6.750000000000068
100
AcDbArc
 50
240.0
 51
60.0
  0
LINE
  5
AF
330
1F
100
AcDbEntity
  8
0
  6
Continuous
 62
     7
370
    25
100
AcDbLine
 10
98.5678935813
 20
282.9180199821
 30
0.0
 11
107.4806379027
 21
277.7722446488
 31
0.0
  0
SPLINE
  5
B0
330
1F
100
AcDbEntity
  8
0
  6
Continuous
 62
     7
370
    25
100
AcDbSpline
210
0.0
220
0.0
230
1.0
 70
     8
 71
     3
 72
    25
 73
    21
 74
     0
 42
0.00000001
 43
0.00000001
 40
0.0
 40
0.0
 40
0.0
 40
0.0
 40
0.0284933667025309
 40
0.0564732510237885
 40
0.0840812509273789
 40
0.1114647339451059
 40
0.138774702402565
 40
0.1661633745787119
 40
0.1937816674560275
 40
0.221776784723182
 40
0.2502900944505003
 40
0.3751284535044709
 40
0.5000701820812207
 40
0.6246983309356624
 40
0.7494293309124186
 40
0.800404183314636
 40
0.8500739668914364
 40
0.8993066022595958
 40
0.9489929236329037
 40
1.0
 40
1.0
 40
1.0
 40
1.0
 10
99.50477629767019
 20
286.5571121899052
 30
0.0
 10
99.45674136085357
 20
286.555246476102
 30
0.0
 10
99.36153713058212
 20
286.5515486707481
 30
0.0
 10
99.22070151625041
 20
286.5336095030017
 30
0.0
 10
99.08331227870215
 20
286.5065638835661
 30
0.0
 10
98.94939670747083
 20
286.4695636249562
 30
0.0
 10
98.81896382379543
 20
286.4228329050616
 30
0.0
 10
98.69202545950569
 20
286.3663129807557
 30
0.0
 10
98.56859655562829
 20
286.3000427369489
 30
0.0
 10
98.44866516636847
 20
286.2239693118213
 30
0.0
 10
98.2023723588265
 20
286.042693318097
 30
0.0
 10
97.87454275964836
 20
285.6929570867042
 30
0.0
 10
97.62356249799815
 20
285.1017751996698
 30
0.0
 10
97.55768161971213
 20
284.4629908521274
 30
0.0
 10
97.68481625653993
 20
283.9619642952817
 30
0.0
 10
97.85291563477873
 20
283.6205156616968
 30
0.0
 10
97.99325807953369
 20
283.4092436906609
 30
0.0
 10
98.1596443505086
 20
283.2210578639396
 30
0.0
 10
98.35056369174377
 20
283.0536465593765
 30
0.0
 10
98.4948195692137
 20
282.9636224445946
 30
0.0
 10
98.56789358125054
 20
282.9180199820638
 30
0.0
  0
ARC
  5
B1
330
1F
100
AcDbEntity
  8
0
  6
Continuous
 62
     7
370
    25
100
AcDbCircle
 10
99.0962178065
 20
307.3530993018
 30
0.0
 40
20.80000000000004
100
AcDbArc
 50
271.1254895546
 51
328.8745364661
  0
SPLINE
  5
B2
330
1F
100
AcDbEntity
  8
0
  6
Continuous
 62
     7
370
    25
100
AcDbSpline
210
0.0
220
0.0
230
1.0
 70
     8
 71
     3
 72
    25
 73
    21
 74
     0
 42
0.00000001
 43
0.00000001
 40
0.0
 40
0.0
 40
0.0
 40
0.0
 40
0.028493357476895
 40
0.0564732325354118
 40
0.0840812231399047
 40
0.1114646968254888
 40
0.1387746559229303
 40
0.1661633187172764
 40
0.1937816021969655
 40
0.2217767100554854
 40
0.2502900103660328
 40
0.3748768965484013
 40
0.4995674874000102
 40
0.6244318474355273
 40
0.7493994158577139
 40
0.8003805759850552
 40
0.8500561847956994
 40
0.8992944787271758
 40
0.9489866222073292
 40
1.0
 40
1.0
 40
1.0
 40
1.0
 10
120.5218174539744
 20
295.5931015633792
 30
0.0
 10
120.5208956049986
 20
295.641164323704
 30
0.0
 10
120.5190685198044
 20
295.7364236992381
 30
0.0
 10
120.5038989968946
 20
295.87758581063
 30
0.0
 10
120.4795569985574
 20
296.0154810500404
 30
0.0
 10
120.4451939567105
 20
296.1500987922558
 30
0.0
 10
120.4010338318506
 20
296.2814256185109
 30
0.0
 10
120.3470176556471
 20
296.4094508372159
 30
0.0
 10
120.2831840259117
 20
296.5341588057659
 30
0.0
 10
120.2094802738473
 20
296.6555622801404
 30
0.0
 10
120.0333201799131
 20
296.905025321588
 30
0.0
 10
119.6908213156865
 20
297.2391191662512
 30
0.0
 10
119.1054249433749
 20
297.5020703889144
 30
0.0
 10
118.4677018347257
 20
297.5812195297556
 30
0.0
 10
117.9633905455328
 20
297.4639140167968
 30
0.0
 10
117.6183114884943
 20
297.3024006775738
 30
0.0
 10
117.4042882399995
 20
297.166229240494
 30
0.0
 10
117.2128400781423
 20
297.0035582679611
 30
0.0
 10
117.04168482586
 20
296.8159435262111
 30
0.0
 10
116.94883206425
 20
296.6734654689606
 30
0.0
 10
116.9017965795294
 20
296.6012917999321
 30
0.0
  0
LINE
  5
B3
330
1F
100
AcDbEntity
  8
0
  6
Continuous
 62
     7
370
    25
100
AcDbLine
 10
120.521817454
 20
285.3015731733
 30
0.0
 11
120.521817454
 21
295.5931015634
 31
0.0
  0
ARC
  5
B4
330
1F
100
AcDbEntity
  8
0
  6
Continuous
 62
     7
370
    25
100
AcDbCircle
 10
127.271817454
 20
285.3015731733
 30
0.0
 40
6.75
100
AcDbArc
 50
180.0
 51
0.0
  0
LINE
  5
B5
330
1F
100
AcDbEntity
  8
0
  6
Continuous
 62
     7
370
    25
100
AcDbLine
 10
134.021817454
 20
295.5931238397
 30
0.0
 11
134.021817454
 21
285.3015731733
 31
0.0
  0
SPLINE
  5
B6
330
1F
100
AcDbEntity
  8
0
  6
Continuous
 62
     7
370
    25
100
AcDbSpline
210
0.0
220
0.0
230
1.0
 70
     8
 71
     3
 72
    25
 73
    21
 74
     0
 42
0.00000001
 43
0.00000001
 40
0.0
 40
0.0
 40
0.0
 40
0.0
 40
0.0284933667034373
 40
0.0564732510253707
 40
0.0840812509294116
 40
0.1114647339473638
 40
0.1387747024048299
 40
0.166163374580776
 40
0.193781667457699
 40
0.2217767847242838
 40
0.2502900944508751
 40
0.3751284535112026
 40
0.500070182081886
 40
0.6246983309396946
 40
0.749429330912628
 40
0.8004041833128983
 40
0.8500739668887346
 40
0.8993066022569073
 40
0.9489929236311508
 40
1.0
 40
1.0
 40
1.0
 40
1.0
 10
137.641805110889
 20
296.6013057108842
 30
0.0
 10
137.6161718869302
 20
296.6419723295363
 30
0.0
 10
137.5653673784183
 20
296.7225727088244
 30
0.0
 10
137.4794137962597
 20
296.835570344723
 30
0.0
 10
137.387296983992
 20
296.9410301049306
 30
0.0
 10
137.288296034473
 20
297.0385042622752
 30
0.0
 10
137.1826096020694
 20
297.1280970930798
 30
0.0
 10
137.0701927296564
 20
297.2097689791157
 30
0.0
 10
136.9510865630671
 20
297.2835264235294
 30
0.0
 10
136.8252393497256
 20
297.3493533407731
 30
0.0
 10
136.5451033302826
 20
297.4720111720084
 30
0.0
 10
136.0783080696859
 20
297.5810518173191
 30
0.0
 10
135.4408394064251
 20
297.5028161562286
 30
0.0
 10
134.8546954947896
 20
297.2404784966658
 30
0.0
 10
134.4843610870004
 20
296.8798633930617
 30
0.0
 10
134.2727075853539
 20
296.5635607443633
 30
0.0
 10
134.1599119137096
 20
296.3363846364625
 30
0.0
 10
134.0801313426246
 20
296.0981969855966
 30
0.0
 10
134.0306085706077
 20
295.8491503337276
 30
0.0
 10
134.0247733389847
 20
295.6792090217981
 30
0.0
 10
134.0218174539744
 20
295.5931238397495
 30
0.0
  0
ARC
  5
B7
330
1F
100
AcDbEntity
  8
0
  6
Continuous
 62
     7
370
    25
100
AcDbCircle
 10
155.447379001
 20
307.3531212991
 30
0.0
 40
20.80000000000001
100
AcDbArc
 50
211.1254895546
 51
268.8745364661
  0
SPLINE
  5
B8
330
1F
100
AcDbEntity
  8
0
  6
Continuous
 62
     7
370
    25
100
AcDbSpline
210
0.0
220
0.0
230
1.0
 70
     8
 71
     3
 72
    25
 73
    21
 74
     0
 42
0.00000001
 43
0.00000001
 40
0.0
 40
0.0
 40
0.0
 40
0.0
 40
0.0284933574763288
 40
0.0564732325344134
 40
0.0840812231386156
 40
0.111464696824051
 40
0.1387746559214914
 40
0.1661633187159817
 40
0.1937816021959586
 40
0.2217767100549053
 40
0.250290010366011
 40
0.3748768965466735
 40
0.4995674873999497
 40
0.6244318474348722
 40
0.749399415857769
 40
0.8003805759852637
 40
0.8500561847959888
 40
0.8992944787274613
 40
0.9489866222075202
 40
0.9999999999999999
 40
0.9999999999999999
 40
0.9999999999999999
 40
0.9999999999999999
 10
155.9757220347958
 20
282.9180088438786
 30
0.0
 10
156.0168846817245
 20
282.9428385686719
 30
0.0
 10
156.0984681782874
 20
282.9920505586306
 30
0.0
 10
156.2131333913483
 20
283.0757688065281
 30
0.0
 10
156.320383172569
 20
283.1657972151712
 30
0.0
 10
156.4197840362037
 20
283.2628653534691
 30
0.0
 10
156.511436341509
 20
283.3667725565595
 30
0.0
 10
156.5953013451314
 20
283.4775645467202
 30
0.0
 10
156.6713847990833
 20
283.5952000759629
 30
0.0
 10
156.7396714159685
 20
283.7197311347938
 30
0.0
 10
156.8676327002021
 20
283.9970217719955
 30
0.0
 10
156.9857170248144
 20
284.4606814115159
 30
0.0
 10
156.9207412774428
 20
285.0991251525514
 30
0.0
 10
156.6704248897772
 20
285.6909841356475
 30
0.0
 10
156.3166796909517
 20
286.0690777670232
 30
0.0
 10
156.0042655076136
 20
286.2871683271213
 30
0.0
 10
155.7793259595849
 20
286.4044321787784
 30
0.0
 10
155.5427246839844
 20
286.4888956641881
 30
0.0
 10
155.2946679253639
 20
286.5433130897807
 30
0.0
 10
155.1248519274986
 20
286.5524869115213
 30
0.0
 10
155.0388299542757
 20
286.5571340016544
 30
0.0
  0
LINE
  5
B9
330
1F
100
AcDbEntity
  8
0
  6
Continuous
 62
     7
370
    25
100
AcDbLine
 10
147.0629970052
 20
277.7722446488
 30
0.0
 11
155.9757220348
 21
282.9180088439
 31
0.0
  0
LINE
  5
BA
330
1F
100
AcDbEntity
  8
0
  6
Continuous
 62
     7
370
    25
100
AcDbLine
 10
91.8178935813
 20
245.8764693156
 30
0.0
 11
100.7306379027
 21
251.0222446488
 31
0.0
  0
ARC
  5
BB
330
1F
100
AcDbEntity
  8
0
  6
Continuous
 62
     7
370
    25
100
AcDbCircle
 10
70.9206562595
 20
258.551551176
 30
0.0
 40
20.80000000000003
100
AcDbArc
 50
331.1254895546
 51
28.8745364661
  0
LINE
  5
BC
330
1F
100
AcDbEntity
  8
0
  6
Continuous
 62
     7
370
    25
100
AcDbLine
 10
100.7306379027
 20
266.0809016977
 30
0.0
 11
91.8179128732
 21
271.2266658928
 31
0.0
  0
CIRCLE
  5
BD
330
1F
100
AcDbEntity
  8
0
  6
Continuous
 62
     7
370
    25
100
AcDbCircle
 10
138.6799162262
 20
192.9679746759
 30
0.0
 40
5.0
  0
CIRCLE
  5
BE
330
1F
100
AcDbEntity
  8
0
  6
Continuous
 62
     7
370
    25
100
AcDbCircle
 10
138.6799162262
 20
136.9679746759
 30
0.0
 40
5.0
  0
CIRCLE
  5
BF
330
1F
100
AcDbEntity
  8
0
  6
Continuous
 62
     7
370
    25
100
AcDbCircle
 10
167.6799162262
 20
136.9679746759
 30
0.0
 40
7.5
  0
LINE
  5
C0
330
1F
100
AcDbEntity
  8
0
  6
Continuous
 62
     7
370
    25
100
AcDbLine
 10
117.1967714331
 20
201.1822603902
 30
0.0
 11
98.5157759608
 21
152.3251175331
 31
0.0
  0
ARC
  5
C1
330
1F
100
AcDbEntity
  8
0
  6
Continuous
 62
     7
370
    25
100
AcDbCircle
 10
138.6799162262
 20
192.9679746759
 30
0.0
 40
23.00000000000001
100
AcDbArc
 50
20.9248324276
 51
159.0751675724
  0
LINE
  5
C2
330
1F
100
AcDbEntity
  8
0
  6
Continuous
 62
     7
370
    25
100
AcDbLine
 10
178.8440564917
 20
152.3251175331
 30
0.0
 11
160.1630610194
 21
201.1822603902
 31
0.0
  0
ARC
  5
C3
330
1F
100
AcDbEntity
  8
0
  6
Continuous
 62
     7
370
    25
100
AcDbCircle
 10
138.6799162262
 20
136.9679746759
 30
0.0
 40
43.00000000000002
100
AcDbArc
 50
159.0751675724
 51
20.9248324276
  0
CIRCLE
  5
C4
330
1F
100
AcDbEntity
  8
0
  6
Continuous
 62
     7
370
    25
100
AcDbCircle
 10
50.7199842137
 20
157.7593558999
 30
0.0
 40
4.999999999999993
  0
CIRCLE
  5
C5
330
1F
100
AcDbEntity
  8
0
  6
Continuous
 62
     7
370
    25
100
AcDbCircle
 10
50.7199842137
 20
157.7593558999
 30
0.0
 40
44.5
  0
CIRCLE
  5
C6
330
1F
100
AcDbEntity
  8
0
  6
Continuous
 62
     7
370
    25
100
AcDbCircle
 10
79.7199842137
 20
157.7593558999
 30
0.0
 40
7.5
  0
CIRCLE
  5
C7
330
1F
100
AcDbEntity
  8
0
  6
Continuous
 62
     7
370
    25
100
AcDbCircle
 10
93.8814748064
 20
209.6432058387
 30
0.0
 40
5.000000000000014
  0
ARC
  5
C8
330
1F
100
AcDbEntity
  8
0
  6
Continuous
 62
     7
370
    25
100
AcDbCircle
 10
93.8814748064
 20
209.6432058387
 30
0.0
 40
20.0
100
AcDbArc
 50
121.8878033005
 51
58.1121966995
  0
ARC
  5
C9
330
1F
100
AcDbEntity
  8
0
  6
Continuous
 62
     7
370
    25
100
AcDbCircle
 10
93.8814748064
 20
239.9432058387
 30
0.0
 40
16.99999999999998
100
AcDbArc
 50
231.5757417732
 51
308.4242582268
  0
ENDSEC
  0
SECTION
  2
OBJECTS
  0
DICTIONARY
  5
C
330
0
100
AcDbDictionary
281
     1
  3
ACAD_GROUP
350
D
  3
ACAD_LAYOUT
350
1A
  3
ACAD_MLINESTYLE
350
17
  3
ACAD_PLOTSETTINGS
350
19
  3
ACAD_PLOTSTYLENAME
350
E
  3
ACAD_SCALELIST
350
47
  3
DWGPROPS
350
CA
  0
DICTIONARY
  5
D
102
{ACAD_REACTORS
330
C
102
}
330
C
100
AcDbDictionary
281
     1
  0
DICTIONARY
  5
1A
102
{ACAD_REACTORS
330
C
102
}
330
C
100
AcDbDictionary
281
     1
  3
Layout1
350
1E
  3
Layout2
350
26
  3
Model
350
22
  0
DICTIONARY
  5
17
102
{ACAD_REACTORS
330
C
102
}
330
C
100
AcDbDictionary
281
     1
  3
Standard
350
18
  0
DICTIONARY
  5
19
102
{ACAD_REACTORS
330
C
102
}
330
C
100
AcDbDictionary
281
     1
  0
ACDBDICTIONARYWDFLT
  5
E
102
{ACAD_REACTORS
330
C
102
}
330
C
100
AcDbDictionary
281
     1
  3
Normal
350
F
100
AcDbDictionaryWithDefault
340
F
  0
DICTIONARY
  5
47
102
{ACAD_REACTORS
330
C
102
}
330
C
100
AcDbDictionary
281
     1
  3
A0
350
48
  3
A1
350
49
  3
A2
350
4A
  3
A3
350
4B
  3
A4
350
4C
  3
A5
350
4D
  3
A6
350
4E
  3
A7
350
4F
  3
A8
350
50
  3
A9
350
51
  3
B0
350
52
  3
B1
350
53
  3
B2
350
54
  3
B3
350
55
  3
B4
350
56
  3
B5
350
57
  3
B6
350
58
  3
B7
350
59
  3
B8
350
5A
  3
B9
350
5B
  3
C0
350
5C
  3
C1
350
5D
  3
C2
350
5E
  3
C3
350
5F
  3
C4
350
60
  3
C5
350
61
  3
C6
350
62
  3
C7
350
63
  3
C8
350
64
  3
C9
350
65
  3
D0
350
66
  3
D1
350
67
  3
D2
350
68
  0
XRECORD
  5
CA
102
{ACAD_REACTORS
330
C
102
}
330
C
100
AcDbXrecord
280
     1
  1
DWGPROPS COOKIE
  2

  3

  4

  6

  7

  8
Omar Tiscareo
  9

300
=
301
=
302
=
303
=
304
=
305
=
306
=
307
=
308
=
309
=
 40
0.0
 41
2460407.248225613
 42
2460407.248226262
  1

 90
        0
  0
LAYOUT
  5
1E
102
{ACAD_REACTORS
330
1A
102
}
330
1A
100
AcDbPlotSettings
  1

  2
none_device
  4

  6

 40
0.0
 41
0.0
 42
0.0
 43
0.0
 44
0.0
 45
0.0
 46
0.0
 47
0.0
 48
0.0
 49
0.0
140
0.0
141
0.0
142
1.0
143
1.0
 70
   688
 72
     1
 73
     0
 74
     5
  7

 75
    16
147
1.0
148
0.0
149
0.0
100
AcDbLayout
  1
Layout1
 70
     1
 71
     1
 10
0.0
 20
0.0
 11
420.0
 21
297.0
 12
0.0
 22
0.0
 32
0.0
 14
1.0000000000E+20
 24
1.0000000000E+20
 34
1.0000000000E+20
 15
-1.0000000000E+20
 25
-1.0000000000E+20
 35
-1.0000000000E+20
146
0.0
 13
0.0
 23
0.0
 33
0.0
 16
1.0
 26
0.0
 36
0.0
 17
0.0
 27
1.0
 37
0.0
 76
     0
330
1B
  0
LAYOUT
  5
26
102
{ACAD_REACTORS
330
1A
102
}
330
1A
100
AcDbPlotSettings
  1

  2
none_device
  4

  6

 40
0.0
 41
0.0
 42
0.0
 43
0.0
 44
0.0
 45
0.0
 46
0.0
 47
0.0
 48
0.0
 49
0.0
140
0.0
141
0.0
142
1.0
143
1.0
 70
   688
 72
     1
 73
     0
 74
     5
  7

 75
    16
147
1.0
148
0.0
149
0.0
100
AcDbLayout
  1
Layout2
 70
     1
 71
     2
 10
0.0
 20
0.0
 11
0.0
 21
0.0
 12
0.0
 22
0.0
 32
0.0
 14
0.0
 24
0.0
 34
0.0
 15
0.0
 25
0.0
 35
0.0
146
0.0
 13
0.0
 23
0.0
 33
0.0
 16
1.0
 26
0.0
 36
0.0
 17
0.0
 27
1.0
 37
0.0
 76
     0
330
23
  0
LAYOUT
  5
22
102
{ACAD_REACTORS
330
1A
102
}
330
1A
100
AcDbPlotSettings
  1

  2
none_device
  4
Letter_(8.50_x_11.00_Inches)
  6

 40
6.35
 41
6.35
 42
6.35000508
 43
6.35000508
 44
215.9
 45
279.4
 46
0.0
 47
0.0
 48
0.0
 49
0.0
140
0.0
141
0.0
142
1.0
143
1.0
 70
  1712
 72
     1
 73
     0
 74
     0
  7

 75
     0
147
1.0
148
0.0
149
0.0
100
AcDbLayout
  1
Model
 70
     1
 71
     0
 10
0.0
 20
0.0
 11
300.0
 21
300.0
 12
0.0
 22
0.0
 32
0.0
 14
0.0
 24
0.0
 34
0.0
 15
300.0
 25
300.0
 35
0.0
146
0.0
 13
0.0
 23
0.0
 33
0.0
 16
1.0
 26
0.0
 36
0.0
 17
0.0
 27
1.0
 37
0.0
 76
     0
330
1F
331
29
  0
MLINESTYLE
  5
18
102
{ACAD_REACTORS
330
17
102
}
330
17
100
AcDbMlineStyle
  2
Standard
 70
     0
  3

 62
   256
 51
90.0
 52
90.0
 71
     2
 49
0.5
 62
   256
  6
BYLAYER
 49
-0.5
 62
   256
  6
BYLAYER
  0
ACDBPLACEHOLDER
  5
F
102
{ACAD_REACTORS
330
E
102
}
330
E
  0
SCALE
  5
48
102
{ACAD_REACTORS
330
47
102
}
330
47
100
AcDbScale
 70
     0
300
1:1
140
1.0
141
1.0
290
     1
  0
SCALE
  5
49
102
{ACAD_REACTORS
330
47
102
}
330
47
100
AcDbScale
 70
     0
300
1:2
140
1.0
141
2.0
290
     0
  0
SCALE
  5
4A
102
{ACAD_REACTORS
330
47
102
}
330
47
100
AcDbScale
 70
     0
300
1:4
140
1.0
141
4.0
290
     0
  0
SCALE
  5
4B
102
{ACAD_REACTORS
330
47
102
}
330
47
100
AcDbScale
 70
     0
300
1:5
140
1.0
141
5.0
290
     0
  0
SCALE
  5
4C
102
{ACAD_REACTORS
330
47
102
}
330
47
100
AcDbScale
 70
     0
300
1:8
140
1.0
141
8.0
290
     0
  0
SCALE
  5
4D
102
{ACAD_REACTORS
330
47
102
}
330
47
100
AcDbScale
 70
     0
300
1:10
140
1.0
141
10.0
290
     0
  0
SCALE
  5
4E
102
{ACAD_REACTORS
330
47
102
}
330
47
100
AcDbScale
 70
     0
300
1:16
140
1.0
141
16.0
290
     0
  0
SCALE
  5
4F
102
{ACAD_REACTORS
330
47
102
}
330
47
100
AcDbScale
 70
     0
300
1:20
140
1.0
141
20.0
290
     0
  0
SCALE
  5
50
102
{ACAD_REACTORS
330
47
102
}
330
47
100
AcDbScale
 70
     0
300
1:30
140
1.0
141
30.0
290
     0
  0
SCALE
  5
51
102
{ACAD_REACTORS
330
47
102
}
330
47
100
AcDbScale
 70
     0
300
1:40
140
1.0
141
40.0
290
     0
  0
SCALE
  5
52
102
{ACAD_REACTORS
330
47
102
}
330
47
100
AcDbScale
 70
     0
300
1:50
140
1.0
141
50.0
290
     0
  0
SCALE
  5
53
102
{ACAD_REACTORS
330
47
102
}
330
47
100
AcDbScale
 70
     0
300
1:100
140
1.0
141
100.0
290
     0
  0
SCALE
  5
54
102
{ACAD_REACTORS
330
47
102
}
330
47
100
AcDbScale
 70
     0
300
2:1
140
2.0
141
1.0
290
     0
  0
SCALE
  5
55
102
{ACAD_REACTORS
330
47
102
}
330
47
100
AcDbScale
 70
     0
300
4:1
140
4.0
141
1.0
290
     0
  0
SCALE
  5
56
102
{ACAD_REACTORS
330
47
102
}
330
47
100
AcDbScale
 70
     0
300
8:1
140
8.0
141
1.0
290
     0
  0
SCALE
  5
57
102
{ACAD_REACTORS
330
47
102
}
330
47
100
AcDbScale
 70
     0
300
10:1
140
10.0
141
1.0
290
     0
  0
SCALE
  5
58
102
{ACAD_REACTORS
330
47
102
}
330
47
100
AcDbScale
 70
     0
300
100:1
140
100.0
141
1.0
290
     0
  0
SCALE
  5
59
102
{ACAD_REACTORS
330
47
102
}
330
47
100
AcDbScale
 70
     0
300
1/128" = 1'-0"
140
0.0078125
141
12.0
290
     0
  0
SCALE
  5
5A
102
{ACAD_REACTORS
330
47
102
}
330
47
100
AcDbScale
 70
     0
300
1/64" = 1'-0"
140
0.015625
141
12.0
290
     0
  0
SCALE
  5
5B
102
{ACAD_REACTORS
330
47
102
}
330
47
100
AcDbScale
 70
     0
300
1/32" = 1'-0"
140
0.03125
141
12.0
290
     0
  0
SCALE
  5
5C
102
{ACAD_REACTORS
330
47
102
}
330
47
100
AcDbScale
 70
     0
300
1/16" = 1'-0"
140
0.0625
141
12.0
290
     0
  0
SCALE
  5
5D
102
{ACAD_REACTORS
330
47
102
}
330
47
100
AcDbScale
 70
     0
300
3/32" = 1'-0"
140
0.09375
141
12.0
290
     0
  0
SCALE
  5
5E
102
{ACAD_REACTORS
330
47
102
}
330
47
100
AcDbScale
 70
     0
300
1/8" = 1'-0"
140
0.125
141
12.0
290
     0
  0
SCALE
  5
5F
102
{ACAD_REACTORS
330
47
102
}
330
47
100
AcDbScale
 70
     0
300
3/16" = 1'-0"
140
0.1875
141
12.0
290
     0
  0
SCALE
  5
60
102
{ACAD_REACTORS
330
47
102
}
330
47
100
AcDbScale
 70
     0
300
1/4" = 1'-0"
140
0.25
141
12.0
290
     0
  0
SCALE
  5
61
102
{ACAD_REACTORS
330
47
102
}
330
47
100
AcDbScale
 70
     0
300
3/8" = 1'-0"
140
0.375
141
12.0
290
     0
  0
SCALE
  5
62
102
{ACAD_REACTORS
330
47
102
}
330
47
100
AcDbScale
 70
     0
300
1/2" = 1'-0"
140
0.5
141
12.0
290
     0
  0
SCALE
  5
63
102
{ACAD_REACTORS
330
47
102
}
330
47
100
AcDbScale
 70
     0
300
3/4" = 1'-0"
140
0.75
141
12.0
290
     0
  0
SCALE
  5
64
102
{ACAD_REACTORS
330
47
102
}
330
47
100
AcDbScale
 70
     0
300
1" = 1'-0"
140
1.0
141
12.0
290
     0
  0
SCALE
  5
65
102
{ACAD_REACTORS
330
47
102
}
330
47
100
AcDbScale
 70
     0
300
1-1/2" = 1'-0"
140
1.5
141
12.0
290
     0
  0
SCALE
  5
66
102
{ACAD_REACTORS
330
47
102
}
330
47
100
AcDbScale
 70
     0
300
3" = 1'-0"
140
3.0
141
12.0
290
     0
  0
SCALE
  5
67
102
{ACAD_REACTORS
330
47
102
}
330
47
100
AcDbScale
 70
     0
300
6" = 1'-0"
140
6.0
141
12.0
290
     0
  0
SCALE
  5
68
102
{ACAD_REACTORS
330
47
102
}
330
47
100
AcDbScale
 70
     0
300
1'-0" = 1'-0"
140
12.0
141
12.0
290
     0
  0
ENDSEC
  0
EOF
